<svg version="1.1" id="Layer_1" xmlns:x="ns_extend;" xmlns:i="ns_ai;" xmlns:graph="ns_graphs;" xmlns="http://www.w3.org/2000/svg" xmlns:xlink="http://www.w3.org/1999/xlink" x="0px" y="0px" viewBox="0 0 102 96.1" style="enable-background:new 0 0 102 96.1;" xml:space="preserve">
 <metadata>
  <sfw xmlns="ns_sfw;">
   <slices>
   </slices>
   <sliceSourceBounds bottomLeftOrigin="true" height="96.1" width="102" x="-243" y="-210.4">
   </sliceSourceBounds>
  </sfw>
 </metadata>
 <g>
  <path d="M102,46.8c0-22.4-18.1-40.7-40.5-40.9C42.4-5.7,17.5,0.4,5.9,19.4c-10,16.5-7,37.8,7.2,50.8c8.9,21.3,33.3,31.5,54.7,22.6
		c6.5-2.7,12.3-7,16.7-12.5C95.4,72.7,102,60.2,102,46.8z M69,16c-7-3.2-14.8-4.3-22.5-3.4c4.6-2,9.6-3,14.7-3H62
		C64.6,11.5,66.9,13.6,69,16z M79.9,31.6c11.9,14.7,10.4,36-3.4,49c-9.8,4.5-21,4.5-30.8,0.1c20.1-2.7,35.2-19.8,35.2-40.1
		C80.9,37.5,80.6,34.5,79.9,31.6z M41,78C23.8,67,18.7,44,29.8,26.8c0.6-0.9,1.2-1.8,1.9-2.6c13.6-9.1,31.6-8,43.9,2.8
		C83,46.3,73.3,68,54,75.5C49.8,77.1,45.4,77.9,41,78L41,78z M9.9,54.2c0,3.2,0.4,6.4,1.1,9.5C-1.9,47.5,0.9,23.9,17.1,11
		c11-8.7,26-10.6,38.7-4.8c-8.3,1.1-16.1,4.6-22.3,10.3C19.1,23.5,9.9,38.1,9.9,54.2z M20.4,72.2c-7.1-12.4-6.3-27.8,2.2-39.3
		C16.9,48.7,21.4,66.4,34,77.5C29.2,76.6,24.6,74.8,20.4,72.2L20.4,72.2z M51.8,90.4c-10.7,0-20.8-4.7-27.6-12.9
		c4.5,2,9.4,3.1,14.3,3.4c8.2,5.4,18,7.8,27.7,6.5C61.6,89.4,56.7,90.4,51.8,90.4z M75,19.4c-2.1-3.4-4.7-6.5-7.7-9.2
		c20.2,3.4,33.8,22.6,30.3,42.8c-1,5.6-3.2,10.9-6.5,15.6C97.7,50.4,91.1,30.1,75,19.4z">
  </path>
 </g>
</svg>