<?xml version="1.0" encoding="UTF-8"?>
<svg version="1.1" xmlns="http://www.w3.org/2000/svg" width="900" height="500">
<path d="M0 0 C297 0 594 0 900 0 C900 165 900 330 900 500 C603 500 306 500 0 500 C0 335 0 170 0 0 Z " fill="#FEFEFE" transform="translate(0,0)"/>
<path d="M0 0 C0.89726807 -0.00671722 1.79453613 -0.01343445 2.71899414 -0.02035522 C5.65940016 -0.03921567 8.59957646 -0.04325343 11.54003906 -0.04541016 C13.60353689 -0.05184664 15.66703382 -0.05857562 17.73052979 -0.06558228 C22.04758823 -0.07752539 26.36456684 -0.08126618 30.68164062 -0.08007812 C36.18331766 -0.07987517 41.68447681 -0.10716672 47.18603134 -0.14162254 C51.44657695 -0.16398193 55.70699972 -0.16791289 59.96759796 -0.16685867 C61.99436475 -0.16920144 64.02113562 -0.17794932 66.04784393 -0.19352341 C83.75219327 -0.31683314 99.67333081 1.77996323 113.30566406 14.35302734 C124.72233047 26.48707854 127.27207798 40.0437894 126.92675781 56.00927734 C126.29296527 68.64001845 120.53147362 79.75375475 111.32128906 88.38427734 C99.92571013 97.65792089 87.37875663 100.78603829 72.8203125 100.63110352 C71.71640671 100.6315416 70.61250092 100.63197968 69.47514343 100.63243103 C65.87158746 100.63036181 62.2685125 100.6071193 58.66503906 100.58349609 C56.14870457 100.5778935 53.63236678 100.57362654 51.11602783 100.57063293 C45.19833767 100.56039764 39.28082158 100.53681884 33.36320233 100.50658447 C25.95473025 100.4695665 18.54623641 100.4536075 11.13769531 100.43701172 C-2.05640063 100.40493939 -15.2503575 100.35439168 -28.44433594 100.29052734 C-28.17316373 102.18002195 -27.88942532 104.06771517 -27.60058594 105.95458984 C-27.44396484 107.00598145 -27.28734375 108.05737305 -27.12597656 109.140625 C-25.78235488 115.34958164 -23.00638149 120.33412864 -17.93261719 124.20849609 C-12.66285705 127.44728298 -8.42300137 129.40631874 -2.18623352 129.44874573 C-0.55190872 129.46342896 -0.55190872 129.46342896 1.11543274 129.47840881 C2.9086219 129.48704201 2.9086219 129.48704201 4.73803711 129.49584961 C5.99668579 129.50574921 7.25533447 129.5156488 8.55212402 129.52584839 C12.00429529 129.55288993 15.45648022 129.57390354 18.9086988 129.59385037 C22.51620967 129.61571455 26.12367847 129.64310113 29.7311554 129.66990662 C36.56277256 129.71982766 43.39441309 129.76476867 50.22607595 129.80792898 C58.00353434 129.85730638 65.78095052 129.91222265 73.55836809 129.96760857 C89.55742924 130.08141959 105.55652909 130.18752933 121.55566406 130.29052734 C121.55566406 141.51052734 121.55566406 152.73052734 121.55566406 164.29052734 C104.73443455 164.38111204 87.91341591 164.4546738 71.09200954 164.49777603 C63.28008172 164.51832848 55.46831713 164.54630746 47.65649414 164.59228516 C40.84109775 164.63237882 34.02581968 164.65801321 27.21030861 164.66688132 C23.60748348 164.67205834 20.00499661 164.68406952 16.40228081 164.71344757 C-7.27060146 164.89879454 -27.23411525 163.65850229 -45.33203125 146.54785156 C-58.10217571 133.9108189 -64.66688059 116.9740712 -64.88682556 99.08256531 C-64.88388992 98.01037247 -64.88095428 96.93817963 -64.87792969 95.83349609 C-64.88317154 94.68746414 -64.88841339 93.54143219 -64.89381409 92.360672 C-64.90019331 89.95310266 -64.898951 87.54550199 -64.89038086 85.13793945 C-64.88188133 81.4974694 -64.9106766 77.85857707 -64.94238281 74.21826172 C-65.00990266 51.95804337 -61.72631905 33.78674707 -45.44433594 17.29052734 C-32.54917597 5.96902766 -17.15726997 -0.01882243 0 0 Z " fill="#041F4A" transform="translate(284.4443359375,124.70947265625)"/>
<path d="M0 0 C1.3928601 1.01766162 2.76876818 2.05901234 4.125 3.125 C5.14980469 3.90617188 5.14980469 3.90617188 6.1953125 4.703125 C11.39471046 8.87106345 11.39471046 8.87106345 12.125 13.125 C12.785 13.125 13.445 13.125 14.125 13.125 C15.69514906 15.40801516 17.14076471 17.68864371 18.5625 20.0625 C19.46486015 21.53854717 20.3685509 23.01378156 21.2734375 24.48828125 C21.97678223 25.63804443 21.97678223 25.63804443 22.69433594 26.81103516 C24.97073975 30.49290467 27.32654421 34.12197718 29.6875 37.75 C30.62376933 39.19135987 31.55996816 40.63276553 32.49609375 42.07421875 C32.94452637 42.76435059 33.39295898 43.45448242 33.85498047 44.16552734 C35.66449701 46.95737274 37.45668413 49.76022799 39.25 52.5625 C44.42057606 60.61810764 49.67274275 68.62052999 54.92236328 76.62475586 C58.80920706 82.55723611 62.65644679 88.51159135 66.45458984 94.5012207 C69.14658296 98.72964076 71.88618441 102.92681552 74.625 107.125 C77.96276152 112.24127678 81.2849747 117.36581728 84.55859375 122.5234375 C88.22381836 128.29482137 91.94915779 134.02578307 95.6875 139.75 C96.32107422 140.72195313 96.95464844 141.69390625 97.60742188 142.6953125 C98.54618164 144.13390625 98.54618164 144.13390625 99.50390625 145.6015625 C100.41100342 146.9922998 100.41100342 146.9922998 101.33642578 148.41113281 C103.54094477 151.75612777 105.79810229 155.06402595 108.07397461 158.36083984 C109.125 160.125 109.125 160.125 109.125 162.125 C103.41460731 162.42271448 97.70876131 162.63981578 91.99243164 162.78417969 C90.05087611 162.84436289 88.10986097 162.92614193 86.17016602 163.03027344 C70.08156901 163.87204666 70.08156901 163.87204666 65.48950195 159.77172852 C63.67092253 156.62861412 62.3984663 153.52174723 61.125 150.125 C60.06477967 148.3238275 58.95734534 146.54946968 57.80078125 144.80859375 C56.979729 143.52432495 56.979729 143.52432495 56.14208984 142.21411133 C55.5795752 141.33907959 55.01706055 140.46404785 54.4375 139.5625 C53.20674992 137.63820074 51.97628614 135.71371834 50.74609375 133.7890625 C50.13749512 132.83805664 49.52889648 131.88705078 48.90185547 130.90722656 C46.25319492 126.75991472 43.62507051 122.59977004 41 118.4375 C40.51313721 117.66591553 40.02627441 116.89433105 39.5246582 116.09936523 C38.54724196 114.55020675 37.56994639 113.00097212 36.59277344 111.45166016 C34.10516644 107.50839757 31.61496615 103.56677316 29.125 99.625 C26.14719129 94.91094137 23.16984165 90.19659764 20.1953125 85.48046875 C14.85616745 77.01735585 9.50059801 68.56501252 4.125 60.125 C-1.73390045 50.92617354 -7.56706685 41.71143616 -13.38525391 32.48681641 C-15.9848413 28.36547776 -18.58596745 24.24511101 -21.1875 20.125 C-21.68685059 19.33416016 -22.18620117 18.54332031 -22.70068359 17.72851562 C-26.41241231 11.85233621 -30.13589532 5.98380839 -33.875 0.125 C-27.95339556 25.54008489 -21.71962065 50.88057814 -15.50561523 76.2253418 C-13.01620548 86.37929668 -10.52906405 96.53377597 -8.0546875 106.69140625 C-7.83132217 107.60822174 -7.60795685 108.52503723 -7.37782288 109.46963501 C-6.33784891 113.7389867 -5.29864077 118.00852298 -4.26049805 122.27832031 C-4.07213882 123.05188873 -3.8837796 123.82545715 -3.68971252 124.62246704 C-3.31982134 126.14166477 -2.95053496 127.66100991 -2.58189392 129.18051147 C-1.57561854 133.31317602 -0.54195316 137.43742409 0.52001953 141.55615234 C0.75173355 142.46133102 0.98344757 143.3665097 1.22218323 144.29911804 C1.66952752 146.04262671 2.12169147 147.78490831 2.57945251 149.52571106 C2.88249046 150.71024117 2.88249046 150.71024117 3.19165039 151.91870117 C3.37208389 152.61146652 3.5525174 153.30423187 3.73841858 154.01799011 C4.125 156.125 4.125 156.125 4.125 161.125 C-49.995 161.125 -104.115 161.125 -159.875 161.125 C-156.70548117 155.4198661 -153.60026429 150.01226675 -149.9375 144.6640625 C-149.46819565 143.97198196 -148.9988913 143.27990143 -148.5153656 142.56684875 C-146.9719536 140.29225171 -145.42342835 138.0211844 -143.875 135.75 C-142.78089655 134.13904849 -141.68723774 132.52779492 -140.59399414 130.91625977 C-138.86021001 128.36069551 -137.12610741 125.8053525 -135.39064026 123.25093079 C-128.97705912 113.81045135 -122.59514487 104.34867686 -116.21557617 94.88519287 C-114.35202245 92.12112074 -112.48763404 89.35761336 -110.62304688 86.59423828 C-105.42484389 78.88863208 -100.23492821 71.17814526 -95.08569336 63.43969727 C-90.20136425 56.11617034 -85.29010835 48.81071071 -80.37573242 41.50732422 C-79.0841347 39.58660339 -77.79376853 37.66505383 -76.50463867 35.74267578 C-51.19360204 -1.9970547 -51.19360204 -1.9970547 -32.42578125 -6.45703125 C-20.99594429 -8.32991418 -9.78107947 -6.31037385 0 0 Z " fill="#E1271D" transform="translate(766.875,128.875)"/>
<path d="M0 0 C1.11616699 -0.00137466 2.23233398 -0.00274933 3.38232422 -0.00416565 C4.6022406 -0.00057037 5.82215698 0.0030249 7.07904053 0.00672913 C8.36709595 0.0065831 9.65515137 0.00643707 10.98223877 0.00628662 C14.51082895 0.00599975 18.03938513 0.01187869 21.56796741 0.01886058 C25.25685771 0.02511244 28.94574878 0.02569937 32.63464355 0.02688599 C39.61854661 0.02999389 46.60243401 0.0382 53.58633018 0.04823548 C61.53790189 0.05941339 69.48947435 0.0649113 77.44105196 0.06993091 C93.79662907 0.08038305 110.15218462 0.09872183 126.50775146 0.12025452 C126.50775146 11.34025452 126.50775146 22.56025452 126.50775146 34.12025452 C120.72461426 34.12641785 120.72461426 34.12641785 114.824646 34.13270569 C102.07209706 34.14991958 89.31976178 34.19419805 76.56733894 34.25234509 C68.83715819 34.28693409 61.10715463 34.31234258 53.37689209 34.31581116 C46.63574458 34.31885957 39.89491315 34.33946718 33.15388763 34.38077909 C29.58757221 34.40203191 26.02170525 34.41474995 22.45532608 34.40640831 C18.46471317 34.39740452 14.47528737 34.42761958 10.48480225 34.46083069 C9.31450974 34.45220505 8.14421722 34.44357941 6.9384613 34.43469238 C-1.2899343 34.54913429 -8.23694221 36.14904827 -14.40444756 41.90478802 C-15.95517443 43.58530852 -17.25085032 45.19821429 -18.49224854 47.12025452 C-19.26012695 48.28476135 -19.26012695 48.28476135 -20.04351807 49.47279358 C-22.15065087 54.77791055 -21.94036656 59.76172512 -21.92584229 65.42103577 C-21.93108414 66.61198349 -21.93632599 67.80293121 -21.94172668 69.02996826 C-21.94813991 71.54565147 -21.94681899 74.06136469 -21.93829346 76.57704163 C-21.92980106 80.40905242 -21.95852944 84.23956338 -21.99029541 88.07142639 C-21.9919081 90.52129574 -21.99132861 92.97116771 -21.98834229 95.42103577 C-21.99957626 96.55881973 -22.01081024 97.6966037 -22.02238464 98.86886597 C-21.94361647 107.94640139 -19.96654455 115.45553803 -13.49224854 122.12025452 C-5.59389612 128.12987048 1.34265656 128.42146473 10.93890381 128.43910217 C12.188237 128.4491478 13.43757019 128.45919342 14.72476196 128.46954346 C18.13755709 128.49508104 21.55018703 128.51196913 24.96303892 128.52497149 C28.53451959 128.54063684 32.10591676 128.56741615 35.67733765 128.59300232 C42.4344729 128.63972998 49.19162396 128.67650311 55.94883788 128.70967519 C63.64416643 128.74793916 71.339411 128.79733808 79.03466868 128.84765935 C94.85897496 128.95088977 110.68331633 129.03870918 126.50775146 129.12025452 C126.50775146 140.34025452 126.50775146 151.56025452 126.50775146 163.12025452 C109.89548592 163.16550627 93.28327347 163.20230455 76.67096329 163.22387886 C68.95654331 163.23416511 61.24216452 163.24817438 53.527771 163.27113342 C46.7992019 163.29114887 40.07066266 163.30399019 33.34206462 163.30843151 C29.78360086 163.31102516 26.22522244 163.31706524 22.66678619 163.33171463 C18.68177094 163.34798512 14.69690144 163.34822901 10.71185303 163.3473053 C8.96720009 163.35809113 8.96720009 163.35809113 7.18730164 163.36909485 C-3.33438436 163.34284292 -13.30661776 162.48177011 -22.67974854 157.43275452 C-23.359729 157.07753723 -24.03970947 156.72231995 -24.74029541 156.3563385 C-40.15680181 148.09775872 -49.79216495 136.29260015 -55.66705322 119.82777405 C-59.02946097 107.98360218 -59.10228316 96.34629553 -59.01373291 84.09315491 C-58.99226507 80.56047599 -59.01364027 77.02982552 -59.03912354 73.49720764 C-59.06688628 51.64562531 -55.67664946 33.0627488 -39.57427979 16.91712952 C-30.8559567 8.71496726 -21.11936767 3.90281294 -9.49224854 1.12025452 C-8.88896854 0.94419961 -8.28568855 0.7681447 -7.66412735 0.5867548 C-5.05917556 0.02723429 -2.66541534 -0.00253366 0 0 Z " fill="#031E4A" transform="translate(76.49224853515625,125.87974548339844)"/>
<path d="M0 0 C10.13380757 -0.78170034 20.25611723 -1.27573153 30.421875 -1.03515625 C31.27304398 -1.03910904 32.12421295 -1.04306183 33.00117493 -1.0471344 C37.802702 -0.86431967 40.47119873 -0.07639301 44.00756836 3.27001953 C46.36342059 5.92907573 48.00784976 8.27019346 49.01953125 11.71484375 C51.18726109 17.93605214 54.66342199 23.07236603 58.25 28.5625 C59.54277497 30.62577278 60.83049659 32.69221997 62.11328125 34.76171875 C64.64674912 38.83035279 67.18533878 42.89568216 69.73046875 46.95703125 C76.26157592 57.38133563 82.75131366 67.8292887 89.1875 78.3125 C95.19493101 88.09391301 101.26387578 97.83183727 107.42578125 107.51660156 C109.2197774 110.3467084 111.00057708 113.18493022 112.78125 116.0234375 C114.06238484 118.05736421 115.343633 120.09121954 116.625 122.125 C117.22973145 123.09276367 117.83446289 124.06052734 118.45751953 125.05761719 C119.02067871 125.94868164 119.58383789 126.83974609 120.1640625 127.7578125 C120.66373535 128.5533252 121.1634082 129.34883789 121.67822266 130.16845703 C122.88138614 132.13384867 122.88138614 132.13384867 125 133 C127.0799815 133.09101074 127.0799815 133.09101074 129.375 132.875 C130.14585937 132.83117187 130.91671875 132.78734375 131.7109375 132.7421875 C136.43320938 131.21107546 138.94651632 125.6707102 141.50390625 121.640625 C142.15617188 120.61646484 142.8084375 119.59230469 143.48046875 118.53710938 C144.16753906 117.45236328 144.85460937 116.36761719 145.5625 115.25 C146.64918178 113.54162031 147.73691047 111.83391017 148.82467651 110.1262207 C149.8982005 108.4406471 150.97083383 106.75450635 152.04345703 105.06835938 C154.51017393 101.1999169 157.00043687 97.34726723 159.5 93.5 C164.73515414 85.43235194 169.91342405 77.3285798 175.09326172 69.2253418 C178.91930613 63.24265914 182.75845054 57.26907619 186.625 51.3125 C190.78764989 44.89874941 194.90019397 38.45408439 199 32 C203.37668869 25.11259699 207.76257221 18.23153668 212.1875 11.375 C212.63287109 10.68277344 213.07824219 9.99054688 213.53710938 9.27734375 C214.67989794 7.51073126 215.83907309 5.75474616 217 4 C217.34949707 3.27925293 217.69899414 2.55850586 218.05908203 1.81591797 C221.28660054 -1.20374023 225.0156175 -0.4900886 229.26171875 -0.390625 C230.16751175 -0.38496521 231.07330475 -0.37930542 232.00654602 -0.37347412 C234.90073411 -0.35107616 237.7936859 -0.30087392 240.6875 -0.25 C242.64907067 -0.2299394 244.61066073 -0.21168786 246.57226562 -0.1953125 C251.38198706 -0.15120018 256.1907839 -0.08214941 261 0 C257.62461612 6.5034869 254.00294307 12.59793386 249.72753906 18.54785156 C246.91662774 22.53778843 244.41004292 26.70654696 241.875 30.875 C236.97182991 38.86804397 231.94374297 46.76514149 226.81054688 54.61206055 C223.11240858 60.27134968 219.47384135 65.96458971 215.875 71.6875 C212.12401693 77.65210777 208.33944996 83.59193437 204.5 89.5 C200.61988003 95.47108127 196.79351546 101.47353465 193 107.5 C188.30117827 114.96216741 183.54515311 122.38436439 178.73828125 129.77734375 C176.82603825 132.71920297 174.92992106 135.67076371 173.04296875 138.62890625 C172.55449463 139.39187012 172.06602051 140.15483398 171.56274414 140.94091797 C170.63555381 142.38972175 169.71133436 143.84043318 168.79077148 145.29345703 C161.72167032 156.31076218 152.71570844 164.1751208 139.77734375 167.5859375 C129.40672305 169.13204973 118.25277522 169.36392766 109 164 C108.2471875 163.5875 107.494375 163.175 106.71875 162.75 C96.4930146 156.58654305 90.27266966 147.28189583 84.42578125 137.15625 C81.85973691 132.71562938 79.12840796 128.38870102 76.375 124.0625 C75.34604288 122.44030157 74.31740641 120.81789972 73.2890625 119.1953125 C72.75571289 118.35387695 72.22236328 117.51244141 71.67285156 116.64550781 C62.66724549 102.40371748 53.80222814 88.07513764 44.98364258 73.71704102 C38.67164563 63.44788099 32.28590649 53.22577726 25.88525391 43.01171875 C23.93446879 39.89531301 21.98814046 36.77616222 20.04296875 33.65625 C18.73702284 31.56247276 17.43103394 29.46872233 16.125 27.375 C15.18986572 25.87501465 15.18986572 25.87501465 14.23583984 24.34472656 C10.0520631 17.64665552 5.79425018 11.00345054 1.44140625 4.4140625 C0 2 0 2 0 0 Z " fill="#031E4A" transform="translate(416,125)"/>
<path d="M0 0 C0.89773636 -0.0065712 1.79547272 -0.0131424 2.72041321 -0.01991272 C5.70000283 -0.03967003 8.67954198 -0.05131422 11.65917969 -0.0612793 C12.67588493 -0.06535482 13.69259018 -0.06943035 14.74010468 -0.07362938 C20.12214455 -0.09450129 25.50415885 -0.10879771 30.88623047 -0.11816406 C36.44593696 -0.12922603 42.00524295 -0.16362047 47.56480789 -0.20333576 C51.83879338 -0.22948181 56.11268321 -0.23785416 60.38674164 -0.24144554 C62.43604993 -0.24631732 64.48535379 -0.25794807 66.53458405 -0.27648354 C69.40488895 -0.3008301 72.27415471 -0.29991796 75.14453125 -0.29296875 C75.98943619 -0.30577881 76.83434113 -0.31858887 77.70484924 -0.33178711 C83.05588174 -0.28462653 86.0780044 0.63566253 90.33105469 4.17700195 C94.18586561 9.03848324 93.94111443 13.78340227 93.81542969 19.77856445 C93.22124147 23.94746565 92.05998394 26.00691268 89.13183594 28.94262695 C85.42126594 31.48609793 81.94082253 32.42752893 77.47782898 32.41751099 C76.5285704 32.42026031 75.57931183 32.42300964 74.60128784 32.42584229 C73.57198151 32.41865173 72.54267517 32.41146118 71.48217773 32.40405273 C69.84248268 32.40449081 69.84248268 32.40449081 68.16966248 32.40493774 C64.5606184 32.40354568 60.9517814 32.38799002 57.34277344 32.37231445 C54.83885308 32.36858389 52.33493125 32.36573712 49.83100891 32.36373901 C43.91667543 32.35688595 38.00240826 32.3411269 32.08810884 32.32104003 C24.69189045 32.2964669 17.29566283 32.28574475 9.89941406 32.2746582 C-3.29007672 32.25321412 -16.47950632 32.21946699 -29.66894531 32.17700195 C-29.77024039 22.86321791 -28.05761887 14.70273904 -21.45410156 7.67700195 C-18.18488675 4.93000307 -14.49660496 3.02958922 -10.66894531 1.17700195 C-7.35349892 -0.48072124 -3.64597644 0.01149315 0 0 Z " fill="#FCFCFC" transform="translate(283.6689453125,159.822998046875)"/>
<path d="M0 0 C6.0052628 3.31944448 11.33439642 8.48777431 13.8125 15 C14.63224719 22.48990068 15.16112553 30.12707048 10.37109375 36.35546875 C4.24782192 42.81636459 -0.68951899 46.25313377 -9.875 46.5 C-17.01266697 46.36546806 -21.92314839 44.90695526 -27.1875 40 C-33.00087958 32.43904006 -35.17363622 25.47548277 -34.1875 16 C-31.94156942 8.00334272 -25.77797618 3.06119929 -18.8125 -0.9375 C-12.06384707 -2.91555344 -6.47513619 -2.91282722 0 0 Z " fill="#07224D" transform="translate(489.1875,331)"/>
<path d="M0 0 C0.66 1.32 1.32 2.64 2 4 C-1.465 6.97 -1.465 6.97 -5 10 C-5.78375 9.505 -6.5675 9.01 -7.375 8.5 C-12.05336775 6.56412369 -16.00262434 6.12383673 -21 7 C-24.19821159 8.65153549 -26.24769159 10.97412489 -28.375 13.875 C-29.66566808 18.26327147 -29.38680727 21.90404606 -27.875 26.1875 C-25.53351018 29.69973473 -23.83378636 31.18766463 -20 33 C-15.45010325 33.50318173 -11.35379496 33.45126499 -7 32 C-6.67 29.69 -6.34 27.38 -6 25 C-8.64 25 -11.28 25 -14 25 C-14 22.03 -14 19.06 -14 16 C-8.06 16 -2.12 16 4 16 C4 23.92 4 31.84 4 40 C-3.54069464 43.01627786 -7.92205085 44.70649699 -15.5625 44.5625 C-16.80519653 44.54606445 -16.80519653 44.54606445 -18.07299805 44.52929688 C-25.61268738 44.26143068 -30.50744238 42.64507105 -35.7890625 37.1328125 C-40.48351436 31.41492563 -42.50154249 25.51322518 -42.2421875 18.03515625 C-41.35310686 10.56401088 -37.58606445 4.92183456 -32 0 C-22.55922164 -6.45089654 -9.70297944 -5.63398806 0 0 Z " fill="#09234E" transform="translate(570,333)"/>
<path d="M0 0 C1.29296875 1.38671875 1.29296875 1.38671875 1.29296875 4.38671875 C-0.39453125 6.63671875 -0.39453125 6.63671875 -2.70703125 8.38671875 C-5.63320756 8.17260829 -7.92136664 7.31527362 -10.70703125 6.38671875 C-16.18519484 5.75462295 -18.95518978 6.73546787 -23.2265625 9.90234375 C-26.14023864 12.82370769 -27.0106929 15.6954328 -27.08203125 19.76171875 C-26.95498339 25.27922566 -24.65435919 28.30029596 -20.95703125 32.26171875 C-17.60462508 33.93792184 -14.34043283 33.968063 -10.70703125 33.38671875 C-9.82015625 32.85046875 -8.93328125 32.31421875 -8.01953125 31.76171875 C-5.70703125 30.38671875 -5.70703125 30.38671875 -3.14453125 30.88671875 C-0.2726104 32.65405466 1.35064411 34.65307667 3.29296875 37.38671875 C-3.63608529 43.51006883 -8.75394406 44.97540723 -18.12109375 44.828125 C-24.44770019 44.04935972 -29.01387234 41.23268101 -33.359375 36.640625 C-37.91346642 30.71370602 -39.23710833 24.66682391 -39.0859375 17.26953125 C-38.26378984 11.01442846 -35.38871736 5.49643538 -30.58203125 1.38671875 C-21.49172505 -4.93697252 -9.55081181 -6.55756769 0 0 Z " fill="#07224D" transform="translate(822.70703125,332.61328125)"/>
<path d="M0 0 C1.9140625 1.09375 1.9140625 1.09375 4.5390625 3.09375 C2.5590625 5.73375 0.5790625 8.37375 -1.4609375 11.09375 C-2.3271875 10.76375 -3.1934375 10.43375 -4.0859375 10.09375 C-7.4585901 9.09444553 -9.97025457 8.77641519 -13.4609375 9.09375 C-14.1209375 9.75375 -14.7809375 10.41375 -15.4609375 11.09375 C-15.4609375 12.41375 -15.4609375 13.73375 -15.4609375 15.09375 C-14.79707031 15.35929687 -14.13320313 15.62484375 -13.44921875 15.8984375 C-10.78645833 16.96354167 -8.12369792 18.02864583 -5.4609375 19.09375 C-4.584375 19.42761719 -3.7078125 19.76148438 -2.8046875 20.10546875 C0.70271822 21.58442483 2.30922797 22.97198166 4.5390625 26.09375 C5.47576616 31.3909707 5.18185905 35.70926513 2.9140625 40.59375 C-0.75502775 44.45595026 -4.0323878 45.9339022 -9.3359375 46.52734375 C-10.71083234 46.54439874 -12.08601036 46.54546447 -13.4609375 46.53125 C-14.48960937 46.5612207 -14.48960937 46.5612207 -15.5390625 46.59179688 C-20.61432485 46.58695407 -23.63344298 45.40094448 -27.4609375 42.09375 C-27.4609375 37.70406544 -25.33288649 36.32469261 -22.4609375 33.09375 C-20.4609375 34.09375 -18.4609375 35.09375 -16.4609375 36.09375 C-14.54593447 36.25273854 -14.54593447 36.25273854 -12.4609375 36.21875 C-11.7596875 36.22132813 -11.0584375 36.22390625 -10.3359375 36.2265625 C-8.36939975 36.20752236 -8.36939975 36.20752236 -6.4609375 35.09375 C-6.4609375 33.44375 -6.4609375 31.79375 -6.4609375 30.09375 C-7.53021484 29.73023438 -7.53021484 29.73023438 -8.62109375 29.359375 C-22.33764983 24.55950342 -22.33764983 24.55950342 -26.3984375 19.84375 C-27.81198624 16.18515326 -28.12359401 12.92661548 -27.4609375 9.09375 C-25.45712141 4.92581253 -22.95466639 1.93900427 -18.78125 -0.2109375 C-12.89522487 -1.97476321 -5.790296 -2.13229948 0 0 Z " fill="#08234D" transform="translate(875.4609375,329.90625)"/>
<path d="M0 0 C1.87982261 0.71164713 3.72572181 1.51177914 5.5625 2.328125 C5.5625 7.00903799 4.56604129 7.94914104 1.5625 11.328125 C1.0675 11.18375 0.5725 11.039375 0.0625 10.890625 C-3.46558429 10.09680603 -6.82262503 9.61501984 -10.4375 9.328125 C-11.4275 9.988125 -12.4175 10.648125 -13.4375 11.328125 C-13.30475454 13.77263178 -13.30475454 13.77263178 -12.4375 16.328125 C-10.35461287 17.69655084 -10.35461287 17.69655084 -7.75 18.453125 C-6.39648438 18.93652344 -6.39648438 18.93652344 -5.015625 19.4296875 C-4.16484375 19.72617187 -3.3140625 20.02265625 -2.4375 20.328125 C1.74775515 22.15441816 4.1567211 23.43763684 6.5625 27.328125 C7.4479767 32.16234914 7.0598672 36.25381184 5 40.703125 C-0.17669438 46.27802664 -3.85887303 47.59319538 -11.375 47.890625 C-17.89625689 47.73055146 -21.38520633 46.36995993 -26.4375 42.328125 C-24.4575 39.688125 -22.4775 37.048125 -20.4375 34.328125 C-15.5625 36.203125 -15.5625 36.203125 -14.4375 37.328125 C-10.77405389 37.46380819 -7.93134279 37.49273926 -4.4375 36.328125 C-4.4375 34.678125 -4.4375 33.028125 -4.4375 31.328125 C-4.994375 31.08578125 -5.55125 30.8434375 -6.125 30.59375 C-7.7260859 29.89057038 -9.32353028 29.17906254 -10.91796875 28.4609375 C-12.49638642 27.75126134 -14.08151561 27.05613237 -15.67578125 26.3828125 C-20.45146859 24.24229727 -23.12590136 22.24027211 -25.4375 17.328125 C-26.03890736 13.11827349 -25.74885221 10.96328351 -23.875 7.140625 C-17.65960408 -0.03098568 -9.15500474 -2.5234949 0 0 Z " fill="#0A244E" transform="translate(660.4375,329.671875)"/>
<path d="M0 0 C3.63 0 7.26 0 11 0 C11 12.21 11 24.42 11 37 C17.27 37 23.54 37 30 37 C30 40.3 30 43.6 30 47 C20.1 47 10.2 47 0 47 C0 31.49 0 15.98 0 0 Z " fill="#132C55" transform="translate(404,330)"/>
<path d="M0 0 C12.21 0 24.42 0 37 0 C37 2.97 37 5.94 37 9 C32.38 9 27.76 9 23 9 C23 20.88 23 32.76 23 45 C19.7 45 16.4 45 13 45 C13 33.12 13 21.24 13 9 C8.71 9 4.42 9 0 9 C0 6.03 0 3.06 0 0 Z " fill="#031E49" transform="translate(689,330)"/>
<path d="M0 0 C3.6791163 2.18252662 6.26894626 4.76038714 8.4375 8.4375 C9.51127265 13.32913095 9.69466583 16.68785344 7.3125 21.1875 C3.86236745 25.38360716 1.58062336 27.57850044 -3.75 29 C-8.78066344 29.39063864 -12.82264334 27.70830589 -17 25 C-20.19454355 21.64962506 -21.2488514 19.02828535 -21.5 14.5 C-21.28202143 10.02768114 -19.95283965 7.43167851 -17 4 C-11.51618025 -0.94881295 -7.06519762 -1.90982954 0 0 Z " fill="#F7F8F9" transform="translate(487,339)"/>
<path d="M0 0 C3.63 0 7.26 0 11 0 C11 15.18 11 30.36 11 46 C7.37 46 3.74 46 0 46 C0 30.82 0 15.64 0 0 Z " fill="#0E2852" transform="translate(749,330)"/>
<path d="M0 0 C3.3 0 6.6 0 10 0 C10 14.85 10 29.7 10 45 C6.7 45 3.4 45 0 45 C0 30.15 0 15.3 0 0 Z " fill="#021D49" transform="translate(600,331)"/>
</svg>
