<?xml version="1.0" encoding="UTF-8" standalone="no"?>
<!-- Created with Inkscape (http://www.inkscape.org/) -->

<svg
   version="1.1"
   id="svg2"
   xml:space="preserve"
   width="260.63998"
   height="50.130264"
   viewBox="0 0 260.63998 50.130264"
   sodipodi:docname="cf03755307d16349e5fe7ba1e3a5b59b.eps"
   xmlns:inkscape="http://www.inkscape.org/namespaces/inkscape"
   xmlns:sodipodi="http://sodipodi.sourceforge.net/DTD/sodipodi-0.dtd"
   xmlns="http://www.w3.org/2000/svg"
   xmlns:svg="http://www.w3.org/2000/svg"><defs
     id="defs6" /><sodipodi:namedview
     id="namedview4"
     pagecolor="#ffffff"
     bordercolor="#666666"
     borderopacity="1.0"
     inkscape:pageshadow="2"
     inkscape:pageopacity="0.0"
     inkscape:pagecheckerboard="0" /><g
     id="g8"
     inkscape:groupmode="layer"
     inkscape:label="ink_ext_XXXXXX"
     transform="matrix(1.3333333,0,0,-1.3333333,0,50.130265)"><g
       id="g10"
       transform="scale(0.1)"><path
         d="M 316.895,375.977 V 322.266 H 75.1953 V 214.844 H 263.184 V 161.133 H 75.1953 V 0 H 21.4844 V 322.266 H 5.37109 L 0,375.977 h 316.895"
         style="fill:#ffffff;fill-opacity:1;fill-rule:nonzero;stroke:none"
         id="path12" /><path
         d="m 355.566,375.977 h 53.711 V 187.988 c 0,-22.293 7.789,-41.082 23.633,-56.933 15.844,-15.848 34.645,-23.633 56.934,-23.633 22.289,0 41.09,7.785 56.933,23.633 15.844,15.851 23.633,34.64 23.633,56.933 v 187.989 h 53.711 V 187.988 c 0,-37.058 -13.16,-68.75 -39.476,-95.0661 -26.051,-26.0547 -57.743,-39.211 -94.801,-39.211 -37.063,0 -68.75,13.1563 -95.071,39.211 -26.046,26.3161 -39.207,58.0081 -39.207,95.0661 v 187.989"
         style="fill:#ffffff;fill-opacity:1;fill-rule:nonzero;stroke:none"
         id="path14" /><path
         d="M 742.285,322.266 V 214.844 h 107.422 c 14.77,0 27.395,5.109 37.871,15.578 10.469,10.469 15.84,23.359 15.84,38.133 0,14.777 -5.371,27.394 -15.84,37.863 -10.476,10.477 -23.101,15.848 -37.871,15.848 z m -53.711,0 h -16.113 l -5.371,53.711 h 182.617 c 29.805,0 55.059,-10.477 75.996,-31.414 20.957,-20.958 31.426,-46.192 31.426,-76.008 0,-29.813 -10.469,-55.047 -31.426,-76.004 -10.469,-10.469 -22.285,-18.528 -34.902,-23.637 L 957.129,53.7109 H 894.824 L 832.789,161.133 H 742.285 V 53.7109 H 688.574 V 322.266"
         style="fill:#ffffff;fill-opacity:1;fill-rule:nonzero;stroke:none"
         id="path16" /><path
         d="m 1228.63,138.84 c 20.96,20.957 31.43,46.191 31.43,76.004 0,29.816 -10.47,55.051 -31.43,76.008 -20.93,20.937 -46.19,31.414 -75.99,31.414 -29.81,0 -55.06,-10.477 -76,-31.414 -20.96,-20.957 -31.43,-46.192 -31.43,-76.008 0,-29.813 10.47,-55.047 31.43,-76.004 20.94,-20.938 46.19,-31.418 76,-31.418 29.8,0 55.06,10.48 75.99,31.418 z M 1038.5,100.715 c -31.42,31.414 -46.996,69.551 -46.996,114.129 0,44.582 15.576,82.453 46.996,113.867 31.42,31.418 69.56,47.266 114.14,47.266 44.58,0 82.44,-15.848 113.86,-47.266 31.43,-31.414 47.27,-69.285 47.27,-113.867 0,-44.578 -15.84,-82.715 -47.27,-114.129 -31.42,-31.4259 -69.28,-47.0041 -113.86,-47.0041 -44.58,0 -82.72,15.5782 -114.14,47.0041"
         style="fill:#ffffff;fill-opacity:1;fill-rule:nonzero;stroke:none"
         id="path18" /><path
         d="M 1417.97,322.266 V 214.844 h 107.42 c 14.77,0 27.39,5.109 37.87,15.578 10.47,10.469 15.84,23.359 15.84,38.133 0,14.777 -5.37,27.394 -15.84,37.863 -10.48,10.477 -23.1,15.848 -37.87,15.848 z m -53.71,0 h -16.12 l -5.37,53.711 h 182.62 c 29.81,0 55.06,-10.477 76,-31.414 20.95,-20.958 31.42,-46.192 31.42,-76.008 0,-29.813 -10.47,-55.047 -31.42,-76.004 -10.47,-10.469 -22.29,-18.528 -34.91,-23.637 l 66.33,-115.2031 h -62.3 l -62.03,107.4221 h -90.51 V 53.7109 h -53.71 V 322.266"
         style="fill:#ffffff;fill-opacity:1;fill-rule:nonzero;stroke:none"
         id="path20" /><path
         d="m 1954.8,375.977 v -53.711 h -214.84 v -80.567 h 161.13 V 187.988 H 1739.96 V 107.422 H 1954.8 V 53.7109 H 1686.25 V 322.266 h -16.11 l -5.37,53.711 h 290.03"
         style="fill:#ffffff;fill-opacity:1;fill-rule:nonzero;stroke:none"
         id="path22" /></g></g></svg>
