<?xml version="1.0" encoding="UTF-8"?>
<svg version="1.1" xmlns="http://www.w3.org/2000/svg" width="462" height="131">
<path d="M0 0 C152.46 0 304.92 0 462 0 C462 43.23 462 86.46 462 131 C309.54 131 157.08 131 0 131 C0 87.77 0 44.54 0 0 Z " fill="#FAFAFA" transform="translate(0,0)"/>
<path d="M0 0 C1.65322266 0.01740234 1.65322266 0.01740234 3.33984375 0.03515625 C4.44457031 0.04417969 5.54929687 0.05320312 6.6875 0.0625 C7.54214844 0.07410156 8.39679688 0.08570313 9.27734375 0.09765625 C9.47368408 0.97389648 9.67002441 1.85013672 9.87231445 2.75292969 C10.61480233 6.06325178 11.35861501 9.3732708 12.10327148 12.68310547 C12.42279746 14.10453915 12.74182383 15.52608525 13.06030273 16.94775391 C14.82917057 24.84219714 16.6405727 32.72039547 18.63476562 40.56176758 C21.59139334 52.22988765 21.59139334 52.22988765 21.27734375 57.09765625 C24.24734375 57.09765625 27.21734375 57.09765625 30.27734375 57.09765625 C30.27734375 42.57765625 30.27734375 28.05765625 30.27734375 13.09765625 C28.95734375 13.09765625 27.63734375 13.09765625 26.27734375 13.09765625 C26.27734375 9.13765625 26.27734375 5.17765625 26.27734375 1.09765625 C31.55734375 1.09765625 36.83734375 1.09765625 42.27734375 1.09765625 C46.53783368 10.01159393 50.69478521 18.88536285 54.27734375 28.09765625 C55.59734375 31.06765625 56.91734375 34.03765625 58.27734375 37.09765625 C58.60734375 29.17765625 58.93734375 21.25765625 59.27734375 13.09765625 C57.62734375 13.09765625 55.97734375 13.09765625 54.27734375 13.09765625 C54.27734375 9.13765625 54.27734375 5.17765625 54.27734375 1.09765625 C60.54734375 1.09765625 66.81734375 1.09765625 73.27734375 1.09765625 C73.27734375 5.05765625 73.27734375 9.01765625 73.27734375 13.09765625 C72.28734375 13.09765625 71.29734375 13.09765625 70.27734375 13.09765625 C70.27734375 31.24765625 70.27734375 49.39765625 70.27734375 68.09765625 C66.27734375 70.09765625 66.27734375 70.09765625 58.27734375 70.09765625 C52.99734375 59.86765625 47.71734375 49.63765625 42.27734375 39.09765625 C41.94734375 45.03765625 41.61734375 50.97765625 41.27734375 57.09765625 C42.59734375 57.09765625 43.91734375 57.09765625 45.27734375 57.09765625 C45.27734375 61.38765625 45.27734375 65.67765625 45.27734375 70.09765625 C31.41734375 70.09765625 17.55734375 70.09765625 3.27734375 70.09765625 C3.27734375 66.13765625 3.27734375 62.17765625 3.27734375 58.09765625 C4.76234375 57.60265625 4.76234375 57.60265625 6.27734375 57.09765625 C6.27734375 56.10765625 6.27734375 55.11765625 6.27734375 54.09765625 C2.64734375 54.09765625 -0.98265625 54.09765625 -4.72265625 54.09765625 C-4.72265625 55.08765625 -4.72265625 56.07765625 -4.72265625 57.09765625 C-3.73265625 57.09765625 -2.74265625 57.09765625 -1.72265625 57.09765625 C-1.72265625 61.38765625 -1.72265625 65.67765625 -1.72265625 70.09765625 C-8.32265625 70.09765625 -14.92265625 70.09765625 -21.72265625 70.09765625 C-21.72265625 66.13765625 -21.72265625 62.17765625 -21.72265625 58.09765625 C-19.24765625 57.60265625 -19.24765625 57.60265625 -16.72265625 57.09765625 C-16.54089844 56.07027344 -16.35914063 55.04289062 -16.171875 53.984375 C-15.91822258 52.5845894 -15.66430163 51.18485244 -15.41015625 49.78515625 C-15.23323242 48.7787207 -15.23323242 48.7787207 -15.05273438 47.75195312 C-14.14847635 42.81331313 -12.90986709 38.02551942 -11.55883789 33.19165039 C-9.74771623 26.49023586 -8.21332314 19.7159658 -6.62402344 12.95898438 C-6.16781682 11.02270371 -5.70703511 9.08750275 -5.24609375 7.15234375 C-4.97716309 6.01265137 -4.70823242 4.87295898 -4.43115234 3.69873047 C-3.45744918 0.12401181 -3.45744918 0.12401181 0 0 Z " fill="#C9261E" transform="translate(75.72265625,13.90234375)"/>
<path d="M0 0 C6.6 0 13.2 0 20 0 C22.23326676 8.85605784 24.42741938 17.70026144 26.38671875 26.62109375 C26.76931685 28.93871649 26.76931685 28.93871649 28 30 C28.04080783 31.99958364 28.04254356 34.00045254 28 36 C28.66 36 29.32 36 30 36 C30.02578125 35.37996094 30.0515625 34.75992188 30.078125 34.12109375 C30.83206674 22.34932166 34.54899673 11.21576062 38 0 C43.94 0 49.88 0 56 0 C56 4.29 56 8.58 56 13 C55.01 13 54.02 13 53 13 C53 27.19 53 41.38 53 56 C53.99 56 54.98 56 56 56 C56 60.29 56 64.58 56 69 C49.07 69 42.14 69 35 69 C35 65.04 35 61.08 35 57 C36.98 56.505 36.98 56.505 39 56 C38.67 50.72 38.34 45.44 38 40 C35.69 48.25 33.38 56.5 31 65 C28.03 65 25.06 65 22 65 C19.69 55.76 17.38 46.52 15 37 C14.67 43.6 14.34 50.2 14 57 C15.32 57 16.64 57 18 57 C18 60.63 18 64.26 18 68 C12.06 68 6.12 68 0 68 C0 64.04 0 60.08 0 56 C1.32 56 2.64 56 4 56 C4 41.81 4 27.62 4 13 C2.68 13 1.36 13 0 13 C0 8.71 0 4.42 0 0 Z " fill="#D0241C" transform="translate(167,15)"/>
<path d="M0 0 C6.1626307 3.54818131 10.05697685 8.70787824 12.2265625 15.43359375 C15.55338782 28.16987278 14.34320601 41.94683148 10.75 54.4375 C10.09 54.4375 9.43 54.4375 8.75 54.4375 C8.585 55.283125 8.42 56.12875 8.25 57 C6.18670904 61.72837512 2.89969231 64.45465186 -1.25 67.4375 C-7.46460611 69.50903537 -14.8088382 69.57089655 -20.75 66.8125 C-29.56683277 58.43650886 -32.71243756 49.84462414 -33.48828125 37.7109375 C-33.73561483 24.71941581 -31.68384366 13.71790204 -22.875 3.75 C-16.15548796 -2.16957013 -8.30992111 -3.69329827 0 0 Z " fill="#D3241C" transform="translate(344.25,15.5625)"/>
<path d="M0 0 C4.16737178 -0.10839984 8.3318954 -0.18752306 12.5 -0.25 C13.67304688 -0.28351562 14.84609375 -0.31703125 16.0546875 -0.3515625 C24.16071737 -0.44264149 29.60062683 0.46290397 35.953125 5.5703125 C43.92592944 15.12807204 45.72952601 25.88176239 45 38 C43.64391438 47.11335505 40.51734752 57.79368297 33.6171875 64.21875 C29.00830013 67.35554499 25.38467893 68.25009536 19.82421875 68.1953125 C18.08881836 68.18564453 18.08881836 68.18564453 16.31835938 68.17578125 C14.52108398 68.15064453 14.52108398 68.15064453 12.6875 68.125 C10.8612207 68.11146484 10.8612207 68.11146484 8.99804688 68.09765625 C5.99861353 68.07413128 2.99928156 68.03826156 0 68 C0 64.04 0 60.08 0 56 C0.99 56 1.98 56 3 56 C3 41.48 3 26.96 3 12 C2.01 12 1.02 12 0 12 C0 8.04 0 4.08 0 0 Z " fill="#D3241C" transform="translate(362,15)"/>
<path d="M0 0 C4.04207139 -0.08108167 8.08250908 -0.14054629 12.125 -0.1875 C13.26710938 -0.21263672 14.40921875 -0.23777344 15.5859375 -0.26367188 C22.53926206 -0.32431133 27.53118292 -0.19974741 32.86328125 4.71875 C33.34152344 5.3065625 33.81976563 5.894375 34.3125 6.5 C35.04919922 7.38171875 35.04919922 7.38171875 35.80078125 8.28125 C38.27700106 11.83022953 38.16352644 15.18442218 38.1875 19.375 C38.20167969 20.49648438 38.21585937 21.61796875 38.23046875 22.7734375 C37.90186007 27.373959 36.79622509 30.06727918 33.8125 33.5625 C31.7599937 35.73294162 31.7599937 35.73294162 32.2265625 37.7421875 C33.64693715 41.88853371 35.31166783 45.93648543 36.94140625 50.00390625 C38 53 38 53 38 56 C39.65 56.33 41.3 56.66 43 57 C43 60.96 43 64.92 43 69 C40.37472811 69.05382106 37.75055287 69.09358313 35.125 69.125 C34.37863281 69.14175781 33.63226563 69.15851563 32.86328125 69.17578125 C30.90805539 69.1933959 28.95257979 69.10320189 27 69 C24.18230434 66.18230434 23.85395146 62.89439514 23 59.125 C22.02158409 54.85207429 21.03547174 50.90737878 19 47 C19 46.01 19 45.02 19 44 C18.34 44 17.68 44 17 44 C17 48.29 17 52.58 17 57 C18.32 57 19.64 57 21 57 C21 60.96 21 64.92 21 69 C13.74 69 6.48 69 -1 69 C-1 65.04 -1 61.08 -1 57 C0.32 57 1.64 57 3 57 C3 42.15 3 27.3 3 12 C2.01 12 1.02 12 0 12 C0 8.04 0 4.08 0 0 Z " fill="#D2241C" transform="translate(268,15)"/>
<path d="M0 0 C11.55 0 23.1 0 35 0 C35 7.26 35 14.52 35 22 C34.01 22 33.02 22 32 22 C32.495 33.88 32.495 33.88 33 46 C34.32 46.33 35.64 46.66 37 47 C37.30927027 54.73175679 36.14407334 60.9914866 35 69 C23.45 69 11.9 69 0 69 C0 64.71 0 60.42 0 56 C1.32 56 2.64 56 4 56 C4 41.48 4 26.96 4 12 C2.68 12 1.36 12 0 12 C0 8.04 0 4.08 0 0 Z " fill="#D1241C" transform="translate(409,15)"/>
<path d="M0 0 C11.55 0 23.1 0 35 0 C35 7.26 35 14.52 35 22 C34.01 22 33.02 22 32 22 C32.495 33.88 32.495 33.88 33 46 C34.32 46.33 35.64 46.66 37 47 C36.85696335 49.16685309 36.71042449 51.3334751 36.5625 53.5 C36.48128906 54.7065625 36.40007812 55.913125 36.31640625 57.15625 C35.99052632 61.11508765 35.49269421 65.05844629 35 69 C23.45 69 11.9 69 0 69 C0 64.71 0 60.42 0 56 C1.32 56 2.64 56 4 56 C4 41.48 4 26.96 4 12 C2.68 12 1.36 12 0 12 C0 8.04 0 4.08 0 0 Z " fill="#D3241C" transform="translate(227,15)"/>
<path d="M0 0 C8.25 0 16.5 0 25 0 C25 3.96 25 7.92 25 12 C23.35 12 21.7 12 20 12 C20.18175781 12.50144531 20.36351563 13.00289062 20.55078125 13.51953125 C23.51881542 22.45407514 24.65578254 31.71441271 26 41 C26.20496094 39.78441406 26.40992187 38.56882813 26.62109375 37.31640625 C26.89301961 35.73173486 27.16516643 34.14710137 27.4375 32.5625 C27.57220703 31.76005859 27.70691406 30.95761719 27.84570312 30.13085938 C28.88671875 24.11328125 28.88671875 24.11328125 30 23 C30.39454223 21.15400312 30.74176866 19.29774178 31.0625 17.4375 C31.23910156 16.42558594 31.41570313 15.41367187 31.59765625 14.37109375 C31.73042969 13.58863281 31.86320312 12.80617188 32 12 C30.68 12 29.36 12 28 12 C28 8.04 28 4.08 28 0 C34.6 0 41.2 0 48 0 C48 3.96 48 7.92 48 12 C46.68 12.33 45.36 12.66 44 13 C43.75765625 14.16015625 43.5153125 15.3203125 43.265625 16.515625 C40.24587682 30.69001537 40.24587682 30.69001537 38.0625 36.75 C35.66643827 43.46465519 34.24375542 50.38941885 32.75024414 57.34863281 C32.55164795 58.26354492 32.35305176 59.17845703 32.1484375 60.12109375 C31.97489746 60.9402124 31.80135742 61.75933105 31.62255859 62.60327148 C31 65 31 65 29 70 C25.04 70 21.08 70 17 70 C13.34762353 55.68225199 9.77967796 41.35977274 6.5625 26.9375 C6.30388184 25.78531982 6.04526367 24.63313965 5.77880859 23.44604492 C5.54371582 22.37974854 5.30862305 21.31345215 5.06640625 20.21484375 C4.85959229 19.27761475 4.65277832 18.34038574 4.43969727 17.37475586 C4 15 4 15 4 12 C2.68 12 1.36 12 0 12 C0 8.04 0 4.08 0 0 Z " fill="#D3241C" transform="translate(13,15)"/>
<path d="M0 0 C4.29 0 8.58 0 13 0 C13.9765625 2.31119792 14.953125 4.62239583 15.9296875 6.93359375 C16.8244937 9.15746715 16.8244937 9.15746715 19 10 C19.7109375 11.71484375 19.7109375 11.71484375 20.375 13.9375 C22.96429208 22.13260944 26.34472474 29.90236053 30.046875 37.65234375 C31 40 31 40 31 43 C31.66 43 32.32 43 33 43 C33 31.45 33 19.9 33 8 C31.35 8 29.7 8 28 8 C28 5.36 28 2.72 28 0 C32.95 0 37.9 0 43 0 C43 2.64 43 5.28 43 8 C42.01 8 41.02 8 40 8 C40 26.48 40 44.96 40 64 C37.04335481 65.4783226 34.25770263 65.06032783 31 65 C30.16180842 63.37750059 29.3295884 61.75191503 28.5 60.125 C28.0359375 59.22007813 27.571875 58.31515625 27.09375 57.3828125 C26 55 26 55 26 53 C25.34 53 24.68 53 24 53 C22.35131374 49.56386118 20.70654396 46.12586207 19.0625 42.6875 C18.35963867 41.22280273 18.35963867 41.22280273 17.64257812 39.72851562 C16.9706543 38.32182617 16.9706543 38.32182617 16.28515625 36.88671875 C15.87144775 36.02264404 15.45773926 35.15856934 15.03149414 34.26831055 C14 32 14 32 13 29 C12.34 28.67 11.68 28.34 11 28 C11 37.24 11 46.48 11 56 C12.65 56 14.3 56 16 56 C16 58.97 16 61.94 16 65 C10.72 65 5.44 65 0 65 C0 62.03 0 59.06 0 56 C1.32 56 2.64 56 4 56 C4 40.16 4 24.32 4 8 C2.68 8 1.36 8 0 8 C0 5.36 0 2.72 0 0 Z " fill="#D3241C" transform="translate(104,17)"/>
<path d="M0 0 C2.13586678 3.20380017 2.23132175 4.01939967 2.125 7.6875 C2.10695313 8.49574219 2.08890625 9.30398437 2.0703125 10.13671875 C2.04710938 10.75160156 2.02390625 11.36648437 2 12 C1.34 12 0.68 12 0 12 C-0.103125 13.175625 -0.20625 14.35125 -0.3125 15.5625 C-0.62345599 19.10739834 -1.81423185 21.86409465 -3.25805664 25.09741211 C-4.50911439 28.30553749 -5.01418759 31.61279196 -5.5625 35 C-6.87028311 42.80186037 -8.43873495 50.8774699 -12 58 C-13.32 58 -14.64 58 -16 58 C-16 60.97 -16 63.94 -16 67 C-10.72 67 -5.44 67 0 67 C0 64.03 0 61.06 0 58 C-0.99 58 -1.98 58 -3 58 C-3 55.69 -3 53.38 -3 51 C1.62 51 6.24 51 11 51 C11.33 53.31 11.66 55.62 12 58 C11.01 58 10.02 58 9 58 C9 60.97 9 63.94 9 67 C15.27 67 21.54 67 28 67 C28 64.03 28 61.06 28 58 C26.68 58 25.36 58 24 58 C22.40837921 52.42932723 21.79325056 47.78898419 22 42 C22.33 42 22.66 42 23 42 C25.29612756 51.41002278 25.29612756 51.41002278 25 56 C27.97 56 30.94 56 34 56 C34 41.48 34 26.96 34 12 C32.68 12 31.36 12 30 12 C30 8.04 30 4.08 30 0 C35.28 0 40.56 0 46 0 C50.26048993 8.91393768 54.41744146 17.7877066 58 27 C59.32 29.97 60.64 32.94 62 36 C62.33 28.08 62.66 20.16 63 12 C61.35 12 59.7 12 58 12 C58 8.04 58 4.08 58 0 C64.27 0 70.54 0 77 0 C77 3.96 77 7.92 77 12 C76.01 12 75.02 12 74 12 C74 30.15 74 48.3 74 67 C70 69 70 69 62 69 C56.72 58.77 51.44 48.54 46 38 C45.67 43.94 45.34 49.88 45 56 C46.32 56 47.64 56 49 56 C49 60.29 49 64.58 49 69 C35.14 69 21.28 69 7 69 C7 65.04 7 61.08 7 57 C8.485 56.505 8.485 56.505 10 56 C10 55.01 10 54.02 10 53 C6.37 53 2.74 53 -1 53 C-1 53.99 -1 54.98 -1 56 C-0.01 56 0.98 56 2 56 C2 60.29 2 64.58 2 69 C-4.6 69 -11.2 69 -18 69 C-18 65.04 -18 61.08 -18 57 C-15.525 56.505 -15.525 56.505 -13 56 C-12.81824219 54.97261719 -12.63648438 53.94523437 -12.44921875 52.88671875 C-12.19556633 51.48693315 -11.94164538 50.08719619 -11.6875 48.6875 C-11.51057617 47.68106445 -11.51057617 47.68106445 -11.33007812 46.65429688 C-10.42620203 41.71774282 -9.19048419 36.93041236 -7.84057617 32.09838867 C-6.1962148 26.03722393 -4.7728912 19.92007273 -3.3125 13.8125 C-2.98908653 12.46545775 -2.66551974 11.1184523 -2.34179688 9.77148438 C-1.55969685 6.51467981 -0.77913104 3.25751587 0 0 Z M32 2 C32 4.64 32 7.28 32 10 C33.32 10 34.64 10 36 10 C36 25.84 36 41.68 36 58 C34.68 58 33.36 58 32 58 C32 60.97 32 63.94 32 67 C37.28 67 42.56 67 48 67 C48 64.03 48 61.06 48 58 C46.35 58 44.7 58 43 58 C43 48.76 43 39.52 43 30 C45.66156575 31.33078287 45.68873799 32.41717824 46.6875 35.1875 C49.30190427 42.03664274 52.65809786 48.48516831 56 55 C56.66 55 57.32 55 58 55 C58.268125 55.86625 58.53625 56.7325 58.8125 57.625 C59.97111987 60.91791964 61.38209839 63.91127875 63 67 C67.65052872 67.26932521 67.65052872 67.26932521 72 66 C72 47.52 72 29.04 72 10 C72.99 10 73.98 10 75 10 C75 7.36 75 4.72 75 2 C70.05 2 65.1 2 60 2 C60 4.64 60 7.28 60 10 C61.65 10 63.3 10 65 10 C65 21.55 65 33.1 65 45 C64.34 45 63.68 45 63 45 C62.87625 44.0409375 62.87625 44.0409375 62.75 43.0625 C61.47012129 37.83632861 58.99781597 33.1001935 56.6953125 28.25390625 C54.70102038 23.99980974 52.85635197 19.96959254 51.8125 15.375 C51.544375 14.26125 51.27625 13.1475 51 12 C50.34 11.67 49.68 11.34 49 11 C47.48388842 8.07290867 46.28422358 5.03932913 45 2 C40.71 2 36.42 2 32 2 Z " fill="#623D39" transform="translate(72,15)"/>
<path d="M0 0 C0.33 0 0.66 0 1 0 C1.33 7.26 1.66 14.52 2 22 C4.02168235 17.9566353 4.35927761 15.67870655 4.625 11.25 C4.69976562 10.07953125 4.77453125 8.9090625 4.8515625 7.703125 C4.90054688 6.81109375 4.94953125 5.9190625 5 5 C4.34 5 3.68 5 3 5 C3 4.34 3 3.68 3 3 C4.65 3 6.3 3 8 3 C8 8.94 8 14.88 8 21 C10.97 21 13.94 21 17 21 C17 19.35 17 17.7 17 16 C17.99 16.33 18.98 16.66 20 17 C19.67 17.66 19.34 18.32 19 19 C19.66 19 20.32 19 21 19 C21 23.95 21 28.9 21 34 C19.68 34 18.36 34 17 34 C16.67 32.68 16.34 31.36 16 30 C13.69 29.67 11.38 29.34 9 29 C9 35.6 9 42.2 9 49 C13.455 48.505 13.455 48.505 18 48 C18.99 45.03 19.98 42.06 21 39 C24.465 39.495 24.465 39.495 28 40 C27.85950482 41.47968324 27.71245174 42.95874516 27.5625 44.4375 C27.48128906 45.26121094 27.40007812 46.08492187 27.31640625 46.93359375 C27 49 27 49 26 50 C25.67 52.31 25.34 54.62 25 57 C14.77 57 4.54 57 -6 57 C-6 54.69 -6 52.38 -6 50 C-4.515 49.505 -4.515 49.505 -3 49 C-2.99191315 48.41562164 -2.98382629 47.83124329 -2.97549438 47.22915649 C-2.88962436 41.16231025 -2.79012925 35.09579741 -2.68261719 29.02929688 C-2.64426729 26.76340318 -2.60942517 24.49744735 -2.578125 22.23144531 C-2.53260473 18.97959133 -2.47458924 15.7281674 -2.4140625 12.4765625 C-2.40251129 11.45881744 -2.39096008 10.44107239 -2.37905884 9.39248657 C-2.35918915 8.45166229 -2.33931946 7.51083801 -2.31884766 6.54150391 C-2.30552399 5.71099518 -2.29220032 4.88048645 -2.2784729 4.02481079 C-2 2 -2 2 0 0 Z " fill="#D5241C" transform="translate(235,24)"/>
<path d="M0 0 C4.95 0 9.9 0 15 0 C15 2.97 15 5.94 15 9 C14.01 9 13.02 9 12 9 C12 24.51 12 40.02 12 56 C13.32 56 14.64 56 16 56 C16 58.64 16 61.28 16 64 C10.39 64 4.78 64 -1 64 C-1 61.69 -1 59.38 -1 57 C0.32 57 1.64 57 3 57 C3 45.12 3 33.24 3 21 C1.68 21 0.36 21 -1 21 C-1.12375 21.639375 -1.2475 22.27875 -1.375 22.9375 C-1.58125 23.618125 -1.7875 24.29875 -2 25 C-2.66 25.33 -3.32 25.66 -4 26 C-4.63365264 16.38960157 -2.92496945 9.14052953 0 0 Z " fill="#D5241C" transform="translate(206,17)"/>
<path d="M0 0 C11.55 0 23.1 0 35 0 C35 7.26 35 14.52 35 22 C34.01 22 33.02 22 32 22 C32.495 33.88 32.495 33.88 33 46 C34.32 46.33 35.64 46.66 37 47 C37.09038099 52.15171623 36.84681133 56.91913204 36 62 C35.67 62 35.34 62 35 62 C34.9727585 60.58344207 34.95349533 59.16672955 34.9375 57.75 C34.92589844 56.96109375 34.91429687 56.1721875 34.90234375 55.359375 C34.99614694 53.09308998 35.36758937 51.1711105 36 49 C33.69 48.67 31.38 48.34 29 48 C28.86722656 48.63808594 28.73445313 49.27617188 28.59765625 49.93359375 C28.42105469 50.75988281 28.24445313 51.58617187 28.0625 52.4375 C27.88847656 53.26121094 27.71445312 54.08492187 27.53515625 54.93359375 C27 57 27 57 26 58 C24.1875 58.1328125 24.1875 58.1328125 22 58.125 C21.278125 58.12757812 20.55625 58.13015625 19.8125 58.1328125 C18 58 18 58 17 57 C16.91348389 55.58429877 16.89295096 54.164405 16.90234375 52.74609375 C16.90556641 51.89208984 16.90878906 51.03808594 16.91210938 50.15820312 C16.92048828 49.26037109 16.92886719 48.36253906 16.9375 47.4375 C16.94201172 46.53580078 16.94652344 45.63410156 16.95117188 44.70507812 C16.96299775 42.46998686 16.9794778 40.23502563 17 38 C19.31 38 21.62 38 24 38 C24 39.98 24 41.96 24 44 C26.31 44 28.62 44 31 44 C31 37.4 31 30.8 31 24 C28.69 24 26.38 24 24 24 C24 25.32 24 26.64 24 28 C21.69 28 19.38 28 17 28 C17 22.06 17 16.12 17 10 C19.97 10.33 22.94 10.66 26 11 C28 17.75 28 17.75 28 20 C29.98 19.67 31.96 19.34 34 19 C34 13.39 34 7.78 34 2 C23.44 2 12.88 2 2 2 C2 4.64 2 7.28 2 10 C3.32 10 4.64 10 6 10 C6 25.84 6 41.68 6 58 C4.68 58 3.36 58 2 58 C2.33 60.64 2.66 63.28 3 66 C13.23 66.33 23.46 66.66 34 67 C34.495 65.02 34.495 65.02 35 63 C35 64.98 35 66.96 35 69 C23.45 69 11.9 69 0 69 C0 64.71 0 60.42 0 56 C1.32 56 2.64 56 4 56 C4 41.48 4 26.96 4 12 C2.68 12 1.36 12 0 12 C0 8.04 0 4.08 0 0 Z " fill="#56302D" transform="translate(409,15)"/>
<path d="M0 0 C0.99 0.33 1.98 0.66 3 1 C3.05506505 2.52040718 3.09326375 4.04142704 3.125 5.5625 C3.14820313 6.40941406 3.17140625 7.25632812 3.1953125 8.12890625 C3 11 3 11 2.01171875 14.3046875 C0.85789731 18.51903144 0.65601756 22.22074204 0.6875 26.5625 C0.69096436 27.34173828 0.69442871 28.12097656 0.69799805 28.92382812 C0.83013042 36.07795683 1.55143606 43.22866268 4 50 C4.99 50.66 5.98 51.32 7 52 C7 52.66 7 53.32 7 54 C8.32 54.33 9.64 54.66 11 55 C10.01 55.495 10.01 55.495 9 56 C8.67 56.99 8.34 57.98 8 59 C5.36038162 60.31980919 3.56514077 59.94362936 0.625 59.5625 C-4.23215917 57.46889691 -6.60832702 54.67338399 -9 50 C-11.675863 43.08083609 -12.4473022 36.7513763 -12.3125 29.375 C-12.31572266 28.48554687 -12.31894531 27.59609375 -12.32226562 26.6796875 C-12.27740249 21.13297278 -11.55748267 16.3239846 -10 11 C-9.34 11 -8.68 11 -8 11 C-7.9175 10.443125 -7.835 9.88625 -7.75 9.3125 C-6.36159692 5.03159052 -3.67972684 2.45315123 0 0 Z " fill="#D5241C" transform="translate(325,21)"/>
<path d="M0 0 C2.4375 0.8125 2.4375 0.8125 4.4375 2.8125 C8.45814964 14.83756223 9.12695456 28.59769564 5.4375 40.8125 C3.625 44 3.625 44 1.4375 45.8125 C-1.125 46.375 -1.125 46.375 -3.5625 45.8125 C-7.33758546 42.3170505 -8.37022235 37.19399285 -8.77075195 32.2331543 C-8.867069 29.29866103 -8.88448321 26.37350181 -8.875 23.4375 C-8.89111328 22.4475 -8.90722656 21.4575 -8.92382812 20.4375 C-8.9282966 13.66329571 -8.59448392 6.50624069 -4.1184082 1.05322266 C-2.5625 -0.1875 -2.5625 -0.1875 0 0 Z " fill="#F5F5F5" transform="translate(335.5625,26.1875)"/>
<path d="M0 0 C36.96 0 73.92 0 112 0 C112 1.65 112 3.3 112 5 C75.04 5 38.08 5 0 5 C0 3.35 0 1.7 0 0 Z " fill="#4F4948" transform="translate(338,103)"/>
<path d="M0 0 C35.97 0 71.94 0 109 0 C109 1.65 109 3.3 109 5 C73.03 5 37.06 5 0 5 C0 3.35 0 1.7 0 0 Z " fill="#504948" transform="translate(13,103)"/>
<path d="M0 0 C2.22855574 -0.0814222 4.45797655 -0.13938079 6.6875 -0.1875 C8.54955078 -0.23970703 8.54955078 -0.23970703 10.44921875 -0.29296875 C14.21424624 0.01767708 16.06095967 0.66980041 19 3 C19.5 5.5 19.5 5.5 19 8 C17.5 9.8125 17.5 9.8125 16 11 C17.98512949 14.11205929 17.98512949 14.11205929 21.1875 15.75 C21.785625 15.8325 22.38375 15.915 23 16 C23.10183594 15.29488281 23.20367187 14.58976562 23.30859375 13.86328125 C24.09914812 10.58940355 25.40523734 8.11415533 27.0625 5.1875 C27.88427734 3.72376953 27.88427734 3.72376953 28.72265625 2.23046875 C29.14417969 1.49441406 29.56570312 0.75835937 30 0 C31.98 0 33.96 0 36 0 C38.45855991 5.26322777 40.56176509 10.36691325 42 16 C42.66 16 43.32 16 44 16 C44 16.99 44 17.98 44 19 C40.7 19 37.4 19 34 19 C34.33 17.35 34.66 15.7 35 14 C32.69 14 30.38 14 28 14 C28.33 15.65 28.66 17.3 29 19 C26.56065775 19.13501894 24.12875896 19.23403897 21.6875 19.3125 C20.99720703 19.35439453 20.30691406 19.39628906 19.59570312 19.43945312 C17.57421875 19.48828125 17.57421875 19.48828125 14 19 C12.00546994 16.5884676 11 15.1524256 11 12 C10.01 12 9.02 12 8 12 C8 13.32 8 14.64 8 16 C8.66 16 9.32 16 10 16 C10 16.99 10 17.98 10 19 C6.7 19 3.4 19 0 19 C0 18.01 0 17.02 0 16 C0.66 16 1.32 16 2 16 C2 11.71 2 7.42 2 3 C1.34 3 0.68 3 0 3 C0 2.01 0 1.02 0 0 Z " fill="#332F2E" transform="translate(149,96)"/>
<path d="M0 0 C8.25 0 16.5 0 25 0 C25 3.96 25 7.92 25 12 C23.35 12 21.7 12 20 12 C20.18175781 12.50144531 20.36351563 13.00289062 20.55078125 13.51953125 C23.51881542 22.45407514 24.65578254 31.71441271 26 41 C26.20496094 39.78441406 26.40992187 38.56882813 26.62109375 37.31640625 C26.89301961 35.73173486 27.16516643 34.14710137 27.4375 32.5625 C27.57220703 31.76005859 27.70691406 30.95761719 27.84570312 30.13085938 C28.88671875 24.11328125 28.88671875 24.11328125 30 23 C30.39454223 21.15400312 30.74176866 19.29774178 31.0625 17.4375 C31.23910156 16.42558594 31.41570313 15.41367187 31.59765625 14.37109375 C31.73042969 13.58863281 31.86320312 12.80617188 32 12 C30.68 12 29.36 12 28 12 C28 8.04 28 4.08 28 0 C34.6 0 41.2 0 48 0 C48 3.96 48 7.92 48 12 C46.68 12.33 45.36 12.66 44 13 C43.75765625 14.16015625 43.5153125 15.3203125 43.265625 16.515625 C40.24587682 30.69001537 40.24587682 30.69001537 38.0625 36.75 C35.66643827 43.46465519 34.24375542 50.38941885 32.75024414 57.34863281 C32.55164795 58.26354492 32.35305176 59.17845703 32.1484375 60.12109375 C31.97489746 60.9402124 31.80135742 61.75933105 31.62255859 62.60327148 C31 65 31 65 29 70 C25.04 70 21.08 70 17 70 C13.34762353 55.68225199 9.77967796 41.35977274 6.5625 26.9375 C6.30388184 25.78531982 6.04526367 24.63313965 5.77880859 23.44604492 C5.54371582 22.37974854 5.30862305 21.31345215 5.06640625 20.21484375 C4.85959229 19.27761475 4.65277832 18.34038574 4.43969727 17.37475586 C4 15 4 15 4 12 C2.68 12 1.36 12 0 12 C0 8.04 0 4.08 0 0 Z M2 2 C2 4.64 2 7.28 2 10 C2.99 10 3.98 10 5 10 C5.10546143 10.54301758 5.21092285 11.08603516 5.31958008 11.64550781 C7.13571693 20.95973762 8.95970791 30.23989612 11.35546875 39.42578125 C11.96980115 41.87938762 12.47122097 44.32703004 12.9375 46.8125 C14.24365742 53.63354431 16.16171851 60.30722759 18 67 C21.3 67 24.6 67 28 67 C28.33 64.69 28.66 62.38 29 60 C29.66 60 30.32 60 31 60 C31.17128418 59.23333008 31.34256836 58.46666016 31.51904297 57.67675781 C32.29898349 54.1999399 33.08689873 50.72497676 33.875 47.25 C34.14441406 46.0434375 34.41382813 44.836875 34.69140625 43.59375 C34.95566406 42.43359375 35.21992187 41.2734375 35.4921875 40.078125 C35.73308105 39.00981445 35.97397461 37.94150391 36.22216797 36.84082031 C36.91512082 34.30999816 37.78997188 32.30797658 39 30 C39.57297757 27.69986515 40.08904365 25.38516285 40.5625 23.0625 C40.81128906 21.85722656 41.06007812 20.65195312 41.31640625 19.41015625 C41.54199219 18.28480469 41.76757812 17.15945312 42 16 C42.19464844 15.02933594 42.38929687 14.05867188 42.58984375 13.05859375 C42.72519531 12.37925781 42.86054687 11.69992188 43 11 C43.99 10.67 44.98 10.34 46 10 C46 7.36 46 4.72 46 2 C40.72 2 35.44 2 30 2 C30 4.64 30 7.28 30 10 C31.32 10 32.64 10 34 10 C33.79318604 10.94319092 33.58637207 11.88638184 33.37329102 12.8581543 C32.60313762 16.37107456 31.83358455 19.88412611 31.06420898 23.3972168 C30.7316895 24.91515612 30.39900913 26.4330602 30.06616211 27.95092773 C29.5866492 30.13776463 29.10772275 32.32472928 28.62890625 34.51171875 C28.48095108 35.18587326 28.33299591 35.86002777 28.18055725 36.55461121 C27.42022421 40.0302437 26.6841945 43.50855255 26 47 C25.67 47 25.34 47 25 47 C23.02 34.79 21.04 22.58 19 10 C20.32 10 21.64 10 23 10 C23 7.36 23 4.72 23 2 C16.07 2 9.14 2 2 2 Z " fill="#5D2C27" transform="translate(13,15)"/>
<path d="M0 0 C11.22 0 22.44 0 34 0 C34 7.26 34 14.52 34 22 C33.01 22 32.02 22 31 22 C31.33 29.92 31.66 37.84 32 46 C33.32 46.33 34.64 46.66 36 47 C36 48.98 36 50.96 36 53 C35.505 51.02 35.505 51.02 35 49 C32.69 48.67 30.38 48.34 28 48 C27.87625 49.27875 27.7525 50.5575 27.625 51.875 C27.25 55.75 27.25 55.75 25 58 C22.03 58 19.06 58 16 58 C16 51.4 16 44.8 16 38 C18.31 38 20.62 38 23 38 C23 39.98 23 41.96 23 44 C24.98 44 26.96 44 29 44 C29 37.4 29 30.8 29 24 C27.02 24 25.04 24 23 24 C23 25.65 23 27.3 23 29 C20.69 29 18.38 29 16 29 C16 22.73 16 16.46 16 10 C18.97 10.33 21.94 10.66 25 11 C26.4783226 13.95664519 26.06032783 16.74229737 26 20 C28.31 20 30.62 20 33 20 C32.505 11.09 32.505 11.09 32 2 C21.44 1.67 10.88 1.34 0 1 C0 0.67 0 0.34 0 0 Z " fill="#4F2E2A" transform="translate(228,15)"/>
<path d="M0 0 C4.04207139 -0.08108167 8.08250908 -0.14054629 12.125 -0.1875 C13.26710938 -0.21263672 14.40921875 -0.23777344 15.5859375 -0.26367188 C22.53926206 -0.32431133 27.53118292 -0.19974741 32.86328125 4.71875 C33.34152344 5.3065625 33.81976563 5.894375 34.3125 6.5 C35.04919922 7.38171875 35.04919922 7.38171875 35.80078125 8.28125 C38.27700106 11.83022953 38.16352644 15.18442218 38.1875 19.375 C38.20167969 20.49648438 38.21585937 21.61796875 38.23046875 22.7734375 C37.90186007 27.373959 36.79622509 30.06727918 33.8125 33.5625 C31.7599937 35.73294162 31.7599937 35.73294162 32.2265625 37.7421875 C33.64693715 41.88853371 35.31166783 45.93648543 36.94140625 50.00390625 C38 53 38 53 38 56 C39.65 56.33 41.3 56.66 43 57 C43 60.96 43 64.92 43 69 C40.37472811 69.05382106 37.75055287 69.09358313 35.125 69.125 C34.37863281 69.14175781 33.63226563 69.15851563 32.86328125 69.17578125 C30.90805539 69.1933959 28.95257979 69.10320189 27 69 C24.18230434 66.18230434 23.85395146 62.89439514 23 59.125 C22.02158409 54.85207429 21.03547174 50.90737878 19 47 C19 46.01 19 45.02 19 44 C18.34 44 17.68 44 17 44 C17 48.29 17 52.58 17 57 C18.32 57 19.64 57 21 57 C21 60.96 21 64.92 21 69 C13.74 69 6.48 69 -1 69 C-1 65.04 -1 61.08 -1 57 C0.32 57 1.64 57 3 57 C3 42.15 3 27.3 3 12 C2.01 12 1.02 12 0 12 C0 8.04 0 4.08 0 0 Z M1 2 C1 4.64 1 7.28 1 10 C2.32 10 3.64 10 5 10 C4.67 25.84 4.34 41.68 4 58 C2.515 58.495 2.515 58.495 1 59 C1 61.64 1 64.28 1 67 C6.94 67 12.88 67 19 67 C19 64.36 19 61.72 19 59 C18.01 59 17.02 59 16 59 C16 53.39 16 47.78 16 42 C20 44 20 44 21.046875 46.1640625 C21.27890625 46.97617187 21.5109375 47.78828125 21.75 48.625 C21.99234375 49.44226563 22.2346875 50.25953125 22.484375 51.1015625 C22.65453125 51.72804687 22.8246875 52.35453125 23 53 C23.66 53 24.32 53 25 53 C25.19916016 54.39025391 25.19916016 54.39025391 25.40234375 55.80859375 C25.57894531 57.00613281 25.75554687 58.20367187 25.9375 59.4375 C26.11152344 60.63246094 26.28554688 61.82742187 26.46484375 63.05859375 C26.68985213 65.87955676 26.68985213 65.87955676 28 67 C30.18639453 67.07258946 32.37500389 67.08373783 34.5625 67.0625 C35.76003906 67.05347656 36.95757812 67.04445313 38.19140625 67.03515625 C39.58166016 67.01775391 39.58166016 67.01775391 41 67 C41 64.03 41 61.06 41 58 C39.68 58 38.36 58 37 58 C36.82984375 57.38253906 36.6596875 56.76507813 36.484375 56.12890625 C34.96392816 50.81542978 33.18161336 45.93635666 30.671875 41.0078125 C29.84439257 38.53498711 30.09622456 37.42134489 31 35 C31.99450595 33.23555397 32.99047746 31.47176405 34.01171875 29.72265625 C36.69737985 25.04132603 37.62250828 21.42471498 37 16 C35.10385269 10.7265946 32.99187436 5.79096174 28.04248047 2.73901367 C23.31260716 1.02764307 18.07966321 1.60460356 13.125 1.75 C11.9596875 1.76804687 10.794375 1.78609375 9.59375 1.8046875 C6.72831751 1.8516618 3.86458832 1.91733707 1 2 Z " fill="#553B37" transform="translate(268,15)"/>
<path d="M0 0 C5.94 0 11.88 0 18 0 C18 4.29 18 8.58 18 13 C17.01 13 16.02 13 15 13 C15 27.19 15 41.38 15 56 C15.99 56 16.98 56 18 56 C18 60.29 18 64.58 18 69 C11.07 69 4.14 69 -3 69 C-3 65.04 -3 61.08 -3 57 C-1.02 56.505 -1.02 56.505 1 56 C0.67 50.72 0.34 45.44 0 40 C-0.66 41.32 -1.32 42.64 -2 44 C-0.93260313 30.54518152 -0.93260313 30.54518152 1 25 C1.66 24.67 2.32 24.34 3 24 C3 35.22 3 46.44 3 58 C1.68 58 0.36 58 -1 58 C-1 60.97 -1 63.94 -1 67 C7.415 66.505 7.415 66.505 16 66 C16.33 63.36 16.66 60.72 17 58 C15.68 58 14.36 58 13 58 C13 42.49 13 26.98 13 11 C13.99 11 14.98 11 16 11 C16 8.03 16 5.06 16 2 C11.05 2 6.1 2 1 2 C0.76925781 3.04414063 0.53851563 4.08828125 0.30078125 5.1640625 C-2.420092 17.45324575 -5.20079903 29.72844119 -8 42 C-8.99 42 -9.98 42 -11 42 C-12.85710087 33.34520917 -14.46588214 24.85898937 -15 16 C-13.4280761 18.87418721 -12.56871611 21.47837606 -11.9375 24.6875 C-11.52286728 27.62766119 -11.52286728 27.62766119 -10 30 C-9.95919217 31.99958364 -9.95745644 34.00045254 -10 36 C-9.34 36 -8.68 36 -8 36 C-7.97421875 35.37996094 -7.9484375 34.75992188 -7.921875 34.12109375 C-7.16793326 22.34932166 -3.45100327 11.21576062 0 0 Z " fill="#634745" transform="translate(205,15)"/>
<path d="M0 0 C5 1 5 1 6.546875 2.5234375 C6.94390625 3.13445313 7.3409375 3.74546875 7.75 4.375 C8.15734375 4.98085938 8.5646875 5.58671875 8.984375 6.2109375 C11.81024768 11.18882091 11.29859046 16.56794231 11.375 22.125 C11.41238281 23.13304688 11.44976562 24.14109375 11.48828125 25.1796875 C11.57021212 32.20753557 10.40901993 37.39350719 6 43 C3 45 3 45 0 45 C0 30.15 0 15.3 0 0 Z " fill="#F3F3F2" transform="translate(380,27)"/>
<path d="M0 0 C3.625 1.375 3.625 1.375 6 4 C7.03817876 8.80968754 6.87710925 12.50954228 4.36328125 16.78125 C1.30651692 19.65107171 -0.29727372 19.64386861 -4.4375 19.5625 C-6.10619141 19.56443359 -6.10619141 19.56443359 -7.80859375 19.56640625 C-11.58720157 18.8957843 -13.27226448 17.64852723 -16 15 C-17.56935594 11.86128812 -17.35201103 9.46144178 -17 6 C-11.882644 -0.1946941 -7.71522828 -0.790398 0 0 Z " fill="#3A3634" transform="translate(280,96)"/>
<path d="M0 0 C4.16737178 -0.10839984 8.3318954 -0.18752306 12.5 -0.25 C13.67304688 -0.28351562 14.84609375 -0.31703125 16.0546875 -0.3515625 C24.16071737 -0.44264149 29.60062683 0.46290397 35.953125 5.5703125 C43.92592944 15.12807204 45.72952601 25.88176239 45 38 C43.64391438 47.11335505 40.51734752 57.79368297 33.6171875 64.21875 C29.00830013 67.35554499 25.38467893 68.25009536 19.82421875 68.1953125 C18.08881836 68.18564453 18.08881836 68.18564453 16.31835938 68.17578125 C14.52108398 68.15064453 14.52108398 68.15064453 12.6875 68.125 C10.8612207 68.11146484 10.8612207 68.11146484 8.99804688 68.09765625 C5.99861353 68.07413128 2.99928156 68.03826156 0 68 C0 64.04 0 60.08 0 56 C0.99 56 1.98 56 3 56 C3 41.48 3 26.96 3 12 C2.01 12 1.02 12 0 12 C0 8.04 0 4.08 0 0 Z M1 2 C1 4.64 1 7.28 1 10 C2.32 10.33 3.64 10.66 5 11 C5 26.51 5 42.02 5 58 C3.68 58 2.36 58 1 58 C1 60.97 1 63.94 1 67 C4.66639248 67.11728126 8.3322952 67.18760891 12 67.25 C13.02996094 67.28351563 14.05992187 67.31703125 15.12109375 67.3515625 C23.40213131 67.45705342 29.16784421 65.94333286 35.1875 60.125 C43.16486716 49.74349479 44.42940675 36.90994616 43.33398438 24.27490234 C42.142067 16.15627216 37.48849816 9.78115667 31.7109375 4.20703125 C28.16101961 1.70263712 24.36541865 1.88078868 20.140625 1.90234375 C19.02558594 1.90556641 17.91054688 1.90878906 16.76171875 1.91210938 C15.02341797 1.92467773 15.02341797 1.92467773 13.25 1.9375 C12.07566406 1.94201172 10.90132813 1.94652344 9.69140625 1.95117188 C6.79421928 1.96294906 3.89713546 1.97939674 1 2 Z " fill="#62423E" transform="translate(362,15)"/>
<path d="M0 0 C6.1626307 3.54818131 10.05697685 8.70787824 12.2265625 15.43359375 C15.55338782 28.16987278 14.34320601 41.94683148 10.75 54.4375 C10.09 54.4375 9.43 54.4375 8.75 54.4375 C8.585 55.283125 8.42 56.12875 8.25 57 C6.18670904 61.72837512 2.89969231 64.45465186 -1.25 67.4375 C-7.46460611 69.50903537 -14.8088382 69.57089655 -20.75 66.8125 C-29.56683277 58.43650886 -32.71243756 49.84462414 -33.48828125 37.7109375 C-33.73561483 24.71941581 -31.68384366 13.71790204 -22.875 3.75 C-16.15548796 -2.16957013 -8.30992111 -3.69329827 0 0 Z M-26.125 9.0625 C-31.18756705 17.10304767 -31.52945207 25.79108407 -31.625 35.0625 C-31.63893799 35.93269775 -31.65287598 36.80289551 -31.66723633 37.69946289 C-31.60746445 45.93323299 -30.17816363 53.93656233 -24.8125 60.4375 C-24.23628906 61.159375 -23.66007812 61.88125 -23.06640625 62.625 C-19.31051955 66.37280952 -16.10680008 66.75152331 -10.875 66.8125 C-4.37878752 66.68910825 -1.24439757 65.49860445 3.328125 60.82421875 C9.35527839 54.22653385 11.89749161 47.83849872 11.84765625 38.91796875 C11.84443359 37.89638672 11.84121094 36.87480469 11.83789062 35.82226562 C11.82951172 34.76716797 11.82113281 33.71207031 11.8125 32.625 C11.80798828 31.55056641 11.80347656 30.47613281 11.79882812 29.36914062 C11.78707729 26.72520317 11.77064787 24.08138048 11.75 21.4375 C11.09 21.4375 10.43 21.4375 9.75 21.4375 C9.853125 20.468125 9.95625 19.49875 10.0625 18.5 C10.07273951 13.47240042 7.67499435 9.40933443 4.75 5.4375 C2.11665094 3.09444139 1.34597711 2.4375 -2.25 2.4375 C-2.25 1.7775 -2.25 1.1175 -2.25 0.4375 C-13.10968216 -0.55475522 -18.24832635 1.8707545 -26.125 9.0625 Z " fill="#57312B" transform="translate(344.25,15.5625)"/>
<path d="M0 0 C16.335 0.495 16.335 0.495 33 1 C33 1.33 33 1.66 33 2 C22.77 2 12.54 2 2 2 C2 4.64 2 7.28 2 10 C3.32 10 4.64 10 6 10 C6 25.84 6 41.68 6 58 C4.02 58.495 4.02 58.495 2 59 C2 61.31 2 63.62 2 66 C12.23 66 22.46 66 33 66 C33 63.69 33 61.38 33 59 C34 56.0625 34 56.0625 35 54 C35.33 54 35.66 54 36 54 C35.67 58.95 35.34 63.9 35 69 C23.45 69 11.9 69 0 69 C0 64.71 0 60.42 0 56 C1.32 56 2.64 56 4 56 C4 41.48 4 26.96 4 12 C2.68 12 1.36 12 0 12 C0 8.04 0 4.08 0 0 Z " fill="#6A2E2B" transform="translate(227,15)"/>
<path d="M0 0 C2.22855574 -0.0814222 4.45797655 -0.13938079 6.6875 -0.1875 C8.54955078 -0.23970703 8.54955078 -0.23970703 10.44921875 -0.29296875 C14.21353613 0.01761849 16.07344119 0.64988459 19 3 C19.3125 5.6875 19.3125 5.6875 19 8 C18.01 8.33 17.02 8.66 16 9 C16.495 9.78375 16.99 10.5675 17.5 11.375 C19 14 19 14 19 16 C19.99 16 20.98 16 22 16 C22 16.99 22 17.98 22 19 C16.66912345 19.43695709 16.66912345 19.43695709 14 19 C11.97170628 16.59140121 11 15.16955691 11 12 C10.01 12 9.02 12 8 12 C8 13.32 8 14.64 8 16 C8.66 16 9.32 16 10 16 C10 16.99 10 17.98 10 19 C6.7 19 3.4 19 0 19 C0 18.01 0 17.02 0 16 C0.66 16 1.32 16 2 16 C2 11.71 2 7.42 2 3 C1.34 3 0.68 3 0 3 C0 2.01 0 1.02 0 0 Z " fill="#312C2B" transform="translate(290,96)"/>
<path d="M0 0 C2.92838992 -0.62306169 4.1889601 -0.86571881 7 0 C10.37043775 3.03979354 13.19558713 6.4388408 16 10 C16.33 7.69 16.66 5.38 17 3 C16.01 3 15.02 3 14 3 C14 2.01 14 1.02 14 0 C16.97 0 19.94 0 23 0 C22.67 6.27 22.34 12.54 22 19 C16 19 16 19 13.6640625 17.3203125 C12.99117187 16.59585938 12.31828125 15.87140625 11.625 15.125 C10.93664062 14.40570313 10.24828125 13.68640625 9.5390625 12.9453125 C8 11 8 11 8 9 C7.34 9 6.68 9 6 9 C6 11.31 6 13.62 6 16 C6.99 16 7.98 16 9 16 C9 16.99 9 17.98 9 19 C6.03 19 3.06 19 0 19 C0 18.01 0 17.02 0 16 C0.66 16 1.32 16 2 16 C2 11.38 2 6.76 2 2 C1.34 2 0.68 2 0 2 C0 1.34 0 0.68 0 0 Z " fill="#2E2928" transform="translate(195,96)"/>
<path d="M0 0 C6.6 0 13.2 0 20 0 C23.21428571 11.11607143 23.21428571 11.11607143 23 16 C20.05568104 11.58352156 19.86037292 7.22369271 19 2 C13.39 2 7.78 2 2 2 C2 4.64 2 7.28 2 10 C2.99 10 3.98 10 5 10 C5 25.84 5 41.68 5 58 C3.68 58 2.36 58 1 58 C1 60.97 1 63.94 1 67 C6.28 67 11.56 67 17 67 C17 64.03 17 61.06 17 58 C15.35 58 13.7 58 12 58 C12 46.45 12 34.9 12 23 C12.66 23 13.32 23 14 23 C14.84228458 26.56044445 15.67223903 30.12365344 16.5 33.6875 C16.73847656 34.69490234 16.97695312 35.70230469 17.22265625 36.74023438 C17.56103516 38.20493164 17.56103516 38.20493164 17.90625 39.69921875 C18.11572266 40.59471436 18.32519531 41.49020996 18.54101562 42.4128418 C18.99994512 44.99969065 19.08261971 47.37888974 19 50 C17 46 17 46 15 37 C14.67 43.6 14.34 50.2 14 57 C15.32 57 16.64 57 18 57 C18 60.63 18 64.26 18 68 C12.06 68 6.12 68 0 68 C0 64.04 0 60.08 0 56 C1.32 56 2.64 56 4 56 C4 41.81 4 27.62 4 13 C2.68 13 1.36 13 0 13 C0 8.71 0 4.42 0 0 Z " fill="#532924" transform="translate(167,15)"/>
<path d="M0 0 C2.206875 -0.061875 4.41375 -0.12375 6.6875 -0.1875 C8.54955078 -0.23970703 8.54955078 -0.23970703 10.44921875 -0.29296875 C14.22330243 0.01842429 16.06482127 0.64745975 19 3 C19.6875 5.9375 19.6875 5.9375 19 9 C16.03744762 11.61806955 14.08965379 12.9052475 10.125 13.25 C9.42375 13.1675 8.7225 13.085 8 13 C8 13.99 8 14.98 8 16 C9.32 16 10.64 16 12 16 C12 16.99 12 17.98 12 19 C8.04 19 4.08 19 0 19 C0 12.73 0 6.46 0 0 Z " fill="#3C3836" transform="translate(241,96)"/>
<path d="M0 0 C0.33 0 0.66 0 1 0 C1.33 7.92 1.66 15.84 2 24 C3.32 24.33 4.64 24.66 6 25 C6.09038099 30.15171623 5.84681133 34.91913204 5 40 C4.67 40 4.34 40 4 40 C3.9727585 38.58344207 3.95349533 37.16672955 3.9375 35.75 C3.92589844 34.96109375 3.91429687 34.1721875 3.90234375 33.359375 C3.99614694 31.09308998 4.36758937 29.1711105 5 27 C2.69 26.67 0.38 26.34 -2 26 C-2.13277344 26.63808594 -2.26554687 27.27617188 -2.40234375 27.93359375 C-2.57894531 28.75988281 -2.75554687 29.58617188 -2.9375 30.4375 C-3.11152344 31.26121094 -3.28554688 32.08492187 -3.46484375 32.93359375 C-4 35 -4 35 -5 36 C-6.8125 36.1328125 -6.8125 36.1328125 -9 36.125 C-9.721875 36.12757812 -10.44375 36.13015625 -11.1875 36.1328125 C-13 36 -13 36 -14 35 C-14.08651611 33.58429877 -14.10704904 32.164405 -14.09765625 30.74609375 C-14.09443359 29.89208984 -14.09121094 29.03808594 -14.08789062 28.15820312 C-14.07951172 27.26037109 -14.07113281 26.36253906 -14.0625 25.4375 C-14.05798828 24.53580078 -14.05347656 23.63410156 -14.04882812 22.70507812 C-14.03700225 20.46998686 -14.0205222 18.23502563 -14 16 C-11.69 16 -9.38 16 -7 16 C-7 17.98 -7 19.96 -7 22 C-4.69 22 -2.38 22 0 22 C0 14.74 0 7.48 0 0 Z " fill="#502B27" transform="translate(440,37)"/>
<path d="M0 0 C0.33 0 0.66 0 1 0 C1.33 2.31 1.66 4.62 2 7 C2.66 5.68 3.32 4.36 4 3 C5.32 3 6.64 3 8 3 C8 14.88 8 26.76 8 39 C6.68 39 5.36 39 4 39 C4 41.31 4 43.62 4 46 C9.28 46 14.56 46 20 46 C20 46.33 20 46.66 20 47 C14.39 47 8.78 47 3 47 C3 44.03 3 41.06 3 38 C4.32 38 5.64 38 7 38 C6.67 27.11 6.34 16.22 6 5 C4.21361969 12.74098136 2.71579852 19.86999409 1.60546875 27.6328125 C0.54103744 33.55242403 -1.22646091 39.2575215 -3 45 C-5.97 45 -8.94 45 -12 45 C-12.99 40.38 -13.98 35.76 -15 31 C-11.23452331 34.76547669 -11.08651531 36.90173585 -10 42 C-8.35 42 -6.7 42 -5 42 C-2.59343789 34.74822618 -1.10355089 27.55607786 0 20 C-0.99 20 -1.98 20 -3 20 C-3.33 20.66 -3.66 21.32 -4 22 C-3.51298949 14.40935336 -2.00236413 7.32940833 0 0 Z " fill="#BB241E" transform="translate(201,35)"/>
<path d="M0 0 C6.93 0 13.86 0 21 0 C21 0.33 21 0.66 21 1 C14.4 1 7.8 1 1 1 C1 4.96 1 8.92 1 13 C2.32 13 3.64 13 5 13 C4.59346163 19.0124886 3.98135898 24.28902413 2 30 C1.46832997 33.15704839 0.99941284 36.31676214 0.5625 39.48828125 C0.376875 40.31714844 0.19125 41.14601562 0 42 C-0.99 42.495 -0.99 42.495 -2 43 C-2.08040527 42.44650879 -2.16081055 41.89301758 -2.24365234 41.32275391 C-4.29835696 27.10519411 -4.29835696 27.10519411 -7 13 C-5.35 13 -3.7 13 -2 13 C-1.34 8.71 -0.68 4.42 0 0 Z " fill="#EAE9E9" transform="translate(40,14)"/>
<path d="M0 0 C2 2 2 2 2.1953125 3.9453125 C2.13020833 5.96354167 2.06510417 7.98177083 2 10 C3.32 10 4.64 10 6 10 C6 25.84 6 41.68 6 58 C4.68 58 3.36 58 2 58 C2.33 60.64 2.66 63.28 3 66 C13.23 66.33 23.46 66.66 34 67 C34.495 65.02 34.495 65.02 35 63 C35 64.98 35 66.96 35 69 C23.45 69 11.9 69 0 69 C0 64.71 0 60.42 0 56 C1.32 56 2.64 56 4 56 C4 41.48 4 26.96 4 12 C2.68 12 1.36 12 0 12 C0 8.04 0 4.08 0 0 Z " fill="#5A3F3D" transform="translate(409,15)"/>
<path d="M0 0 C0.98484375 0.01804687 1.9696875 0.03609375 2.984375 0.0546875 C4.10585937 0.08949219 4.10585937 0.08949219 5.25 0.125 C5.25 2.105 5.25 4.085 5.25 6.125 C3.93 6.125 2.61 6.125 1.25 6.125 C0.92 5.465 0.59 4.805 0.25 4.125 C-1.07 4.125 -2.39 4.125 -3.75 4.125 C-3.75 4.785 -3.75 5.445 -3.75 6.125 C0.705 8.105 0.705 8.105 5.25 10.125 C5.6126943 15.56541451 5.6126943 15.56541451 4.15625 17.8125 C1.31322767 19.76999078 -1.03487016 19.41356821 -4.4375 19.3125 C-6.20673828 19.27189453 -6.20673828 19.27189453 -8.01171875 19.23046875 C-8.91535156 19.19566406 -9.81898438 19.16085938 -10.75 19.125 C-10.75 17.145 -10.75 15.165 -10.75 13.125 C-9.43 13.125 -8.11 13.125 -6.75 13.125 C-6.42 13.785 -6.09 14.445 -5.75 15.125 C-3.22266765 15.78055119 -3.22266765 15.78055119 -0.75 16.125 C-0.75 15.135 -0.75 14.145 -0.75 13.125 C-1.843125 12.856875 -2.93625 12.58875 -4.0625 12.3125 C-9.32566766 10.6175816 -9.32566766 10.6175816 -10.75 8.125 C-10.6875 5.0625 -10.6875 5.0625 -9.75 2.125 C-6.55770418 -0.08392194 -3.80504441 -0.0905963 0 0 Z " fill="#383433" transform="translate(231.75,95.875)"/>
<path d="M0 0 C6.93 0 13.86 0 21 0 C21 1.98 21 3.96 21 6 C19.68 6 18.36 6 17 6 C17 5.01 17 4.02 17 3 C16.01 3 15.02 3 14 3 C14 7.29 14 11.58 14 16 C14.66 16 15.32 16 16 16 C16 16.99 16 17.98 16 19 C12.04 19 8.08 19 4 19 C4 18.01 4 17.02 4 16 C4.99 16 5.98 16 7 16 C7 11.71 7 7.42 7 3 C6.01 3 5.02 3 4 3 C4 3.99 4 4.98 4 6 C2.68 6 1.36 6 0 6 C0 4.02 0 2.04 0 0 Z " fill="#2E2A28" transform="translate(126,96)"/>
<path d="M0 0 C6.93 0 13.86 0 21 0 C21 1.98 21 3.96 21 6 C19.68 6 18.36 6 17 6 C17 5.01 17 4.02 17 3 C16.01 3 15.02 3 14 3 C14 7.29 14 11.58 14 16 C14.66 16 15.32 16 16 16 C16 16.99 16 17.98 16 19 C12.37 19 8.74 19 5 19 C5 18.01 5 17.02 5 16 C5.66 16 6.32 16 7 16 C7 11.71 7 7.42 7 3 C6.01 3 5.02 3 4 3 C4 3.99 4 4.98 4 6 C2.68 6 1.36 6 0 6 C0 4.02 0 2.04 0 0 Z " fill="#322D2C" transform="translate(313,96)"/>
<path d="M0 0 C5.6640625 -0.265625 5.6640625 -0.265625 8.6875 2.125 C15.64877649 10.77955996 15.62395405 20.30202412 15 31 C14.16307594 36.73984926 13.12001374 41.45619728 9.6875 46.1875 C6.68454276 48.21275023 4.60360644 48.83619971 1 49 C0 48 0 48 -0.12025452 46.05747986 C-0.11803391 45.20698563 -0.11581329 44.35649139 -0.11352539 43.48022461 C-0.11344986 42.51930405 -0.11337433 41.55838348 -0.11329651 40.56834412 C-0.10813522 39.523564 -0.10297394 38.47878387 -0.09765625 37.40234375 C-0.0962413 36.33834854 -0.09482635 35.27435333 -0.09336853 34.17811584 C-0.08775064 30.76454917 -0.07519511 27.351047 -0.0625 23.9375 C-0.05748731 21.62955824 -0.052924 19.32161545 -0.04882812 17.01367188 C-0.0377754 11.34242574 -0.02101987 5.67121747 0 0 Z M2 2 C2 16.85 2 31.7 2 47 C7.08452554 45.72886861 8.77126071 43.87623671 11.59375 39.56640625 C13.57176217 34.54994761 13.47498905 29.96889355 13.4375 24.625 C13.45748047 23.62210938 13.47746094 22.61921875 13.49804688 21.5859375 C13.49327011 14.28703454 12.23207588 9.00519891 7.61499023 3.28369141 C5.82195177 1.5851743 5.82195177 1.5851743 2 2 Z " fill="#61312C" transform="translate(378,25)"/>
<path d="M0 0 C2.13586678 3.20380017 2.23132175 4.01939967 2.125 7.6875 C2.10695313 8.49574219 2.08890625 9.30398437 2.0703125 10.13671875 C2.04710938 10.75160156 2.02390625 11.36648437 2 12 C1.34 12 0.68 12 0 12 C-0.103125 13.175625 -0.20625 14.35125 -0.3125 15.5625 C-0.62345599 19.10739834 -1.81423185 21.86409465 -3.25805664 25.09741211 C-4.50911439 28.30553749 -5.01418759 31.61279196 -5.5625 35 C-6.87028311 42.80186037 -8.43873495 50.8774699 -12 58 C-13.32 58 -14.64 58 -16 58 C-16 61.3 -16 64.6 -16 68 C-10.39 68 -4.78 68 1 68 C1 64.37 1 60.74 1 57 C0.01 57 -0.98 57 -2 57 C-1.67 55.68 -1.34 54.36 -1 53 C-1 53.99 -1 54.98 -1 56 C-0.01 56 0.98 56 2 56 C2 60.29 2 64.58 2 69 C-4.6 69 -11.2 69 -18 69 C-18 65.04 -18 61.08 -18 57 C-15.525 56.505 -15.525 56.505 -13 56 C-12.81824219 54.97261719 -12.63648438 53.94523437 -12.44921875 52.88671875 C-12.19556633 51.48693315 -11.94164538 50.08719619 -11.6875 48.6875 C-11.51057617 47.68106445 -11.51057617 47.68106445 -11.33007812 46.65429688 C-10.42620203 41.71774282 -9.19048419 36.93041236 -7.84057617 32.09838867 C-6.1962148 26.03722393 -4.7728912 19.92007273 -3.3125 13.8125 C-2.98908653 12.46545775 -2.66551974 11.1184523 -2.34179688 9.77148438 C-1.55969685 6.51467981 -0.77913104 3.25751587 0 0 Z " fill="#735653" transform="translate(72,15)"/>
<path d="M0 0 C5.93396083 5.93396083 5.33122593 16.01821796 5.375 23.875 C5.34234923 32.29463897 4.55698231 39.93332961 2 48 C0.58696762 48.2506019 -0.83079474 48.47461921 -2.25 48.6875 C-3.03890625 48.81511719 -3.8278125 48.94273438 -4.640625 49.07421875 C-7.7796806 48.97547362 -8.83858409 48.26389684 -11 46 C-15.62319971 33.97623059 -16.00216275 17.31322797 -11.9765625 5.0859375 C-9.29195296 -0.64838847 -5.86850221 -1.82575624 0 0 Z M-8.125 2.5 C-12.82562483 8.76749978 -12.33691792 16.94119997 -12.3125 24.4375 C-12.32861328 25.42298828 -12.34472656 26.40847656 -12.36132812 27.42382812 C-12.36548524 33.69690712 -11.73430639 39.28281391 -9 45 C-7.17899853 47.19920496 -7.17899853 47.19920496 -4.625 47.4375 C-1.87450183 47.20514486 -1.87450183 47.20514486 0.1875 45.1875 C6.59086728 33.92640582 4.76262689 18.71688045 1.94921875 6.64453125 C0.97712792 3.93627821 0.35710805 2.62925996 -2 1 C-5.88886834 0.61554453 -5.88886834 0.61554453 -8.125 2.5 Z " fill="#5B2B25" transform="translate(339,25)"/>
<path d="M0 0 C5.94 0 11.88 0 18 0 C18 0.66 18 1.32 18 2 C12.72 2 7.44 2 2 2 C2 4.64 2 7.28 2 10 C3.65 10 5.3 10 7 10 C7 21.55 7 33.1 7 45 C6.34 45 5.68 45 5 45 C4.68546875 44.154375 4.3709375 43.30875 4.046875 42.4375 C1.90338214 36.75595267 -0.28948461 31.23116849 -3.08203125 25.83984375 C-7.57341115 16.8379717 -7.57341115 16.8379717 -6 12 C-5.61328125 12.97839844 -5.2265625 13.95679688 -4.828125 14.96484375 C-4.30217905 16.28910052 -3.77613189 17.61331709 -3.25 18.9375 C-2.87101562 19.8975293 -2.87101562 19.8975293 -2.484375 20.87695312 C-0.44952643 25.98951016 1.76026724 30.96060129 4 36 C4.33 28.08 4.66 20.16 5 12 C3.35 12 1.7 12 0 12 C0 8.04 0 4.08 0 0 Z " fill="#5C2923" transform="translate(130,15)"/>
<path d="M0 0 C2.27057377 -0.05398987 4.54151288 -0.09278742 6.8125 -0.125 C8.07707031 -0.14820312 9.34164062 -0.17140625 10.64453125 -0.1953125 C14 0 14 0 17 2 C15.02 2 13.04 2 11 2 C11.66 2.66 12.32 3.32 13 4 C12.875 6.5 12.875 6.5 12 9 C9.9375 10.3125 9.9375 10.3125 8 11 C8 12.65 8 14.3 8 16 C8.66 16 9.32 16 10 16 C10 16.99 10 17.98 10 19 C6.7 19 3.4 19 0 19 C0 18.01 0 17.02 0 16 C0.66 16 1.32 16 2 16 C2 11.71 2 7.42 2 3 C1.34 3 0.68 3 0 3 C0 2.01 0 1.02 0 0 Z " fill="#312D2B" transform="translate(149,96)"/>
<path d="M0 0 C4.04207139 -0.08108167 8.08250908 -0.14054629 12.125 -0.1875 C13.26710938 -0.21263672 14.40921875 -0.23777344 15.5859375 -0.26367188 C22.51134499 -0.32406787 27.51081705 -0.14026465 32.875 4.6875 C33.24625 5.120625 33.6175 5.55375 34 6 C33.67 6.99 33.34 7.98 33 9 C32.21625 8.195625 31.4325 7.39125 30.625 6.5625 C26.99258522 3.01657129 25.29288763 2.85883946 20.3359375 2.68359375 C19.21445312 2.64169922 18.09296875 2.59980469 16.9375 2.55664062 C15.761875 2.51732422 14.58625 2.47800781 13.375 2.4375 C11.59996094 2.37272461 11.59996094 2.37272461 9.7890625 2.30664062 C6.85949672 2.20032574 3.92984412 2.09829358 1 2 C1 4.64 1 7.28 1 10 C2.32 10 3.64 10 5 10 C5 25.84 5 41.68 5 58 C3 56 3 56 2.75949097 54.08908081 C2.76393219 53.31186676 2.76837341 52.53465271 2.77294922 51.73388672 C2.77310028 50.85312469 2.77325134 49.97236267 2.77340698 49.06491089 C2.78372955 48.11278717 2.79405212 47.16066345 2.8046875 46.1796875 C2.8075174 45.20589142 2.81034729 44.23209534 2.81326294 43.22879028 C2.82448087 40.11073651 2.8495883 36.99296732 2.875 33.875 C2.88502772 31.76432706 2.89415393 29.65364962 2.90234375 27.54296875 C2.92442542 22.36188165 2.95791871 17.18096115 3 12 C2.01 12 1.02 12 0 12 C0 8.04 0 4.08 0 0 Z " fill="#5A2C29" transform="translate(268,15)"/>
<path d="M0 0 C5.94 0 11.88 0 18 0 C18 4.29 18 8.58 18 13 C17.01 12.67 16.02 12.34 15 12 C15.66 12 16.32 12 17 12 C16.67 11.34 16.34 10.68 16 10 C15.86584528 7.3276379 15.95681459 4.67749512 16 2 C11.05 2 6.1 2 1 2 C0.76925781 3.04414063 0.53851563 4.08828125 0.30078125 5.1640625 C-2.420092 17.45324575 -5.20079903 29.72844119 -8 42 C-8.99 42 -9.98 42 -11 42 C-12.85710087 33.34520917 -14.46588214 24.85898937 -15 16 C-13.4280761 18.87418721 -12.56871611 21.47837606 -11.9375 24.6875 C-11.52286728 27.62766119 -11.52286728 27.62766119 -10 30 C-9.95919217 31.99958364 -9.95745644 34.00045254 -10 36 C-9.34 36 -8.68 36 -8 36 C-7.97421875 35.37996094 -7.9484375 34.75992188 -7.921875 34.12109375 C-7.16793326 22.34932166 -3.45100327 11.21576062 0 0 Z " fill="#643832" transform="translate(205,15)"/>
<path d="M0 0 C3.04229482 2.77774745 3.93014262 4.76856061 4.16796875 8.9609375 C4.17441406 10.08757813 4.18085938 11.21421875 4.1875 12.375 C4.20167969 13.49648438 4.21585937 14.61796875 4.23046875 15.7734375 C3.90186007 20.373959 2.79622509 23.06727918 -0.1875 26.5625 C-2.2400063 28.73294162 -2.2400063 28.73294162 -1.7734375 30.7421875 C-0.35306285 34.88853371 1.31166783 38.93648543 2.94140625 43.00390625 C4 46 4 46 4 49 C5.65 49.33 7.3 49.66 9 50 C9 53.96 9 57.92 9 62 C3.72 62 -1.56 62 -7 62 C-6.67 61.01 -6.34 60.02 -6 59 C-1.71 59.33 2.58 59.66 7 60 C7 57.03 7 54.06 7 51 C5.68 51 4.36 51 3 51 C-0.03826558 47.3540813 -1.02745124 42.89934544 -2.25390625 38.40234375 C-2.9338318 35.98432817 -2.9338318 35.98432817 -4.09765625 33.8046875 C-5 32 -5 32 -4.875 30.1875 C-3.82090095 27.55225238 -2.41715355 25.16992481 -0.98828125 22.72265625 C1.70586671 18.02653273 2.38849584 14.4389417 2 9 C1.37400383 7.31763529 0.71247732 5.6476038 0 4 C0 2.68 0 1.36 0 0 Z " fill="#603F3B" transform="translate(302,22)"/>
<path d="M0 0 C0.33 0 0.66 0 1 0 C1 3.96 1 7.92 1 12 C-0.65 12 -2.3 12 -4 12 C-3.72736328 12.75216797 -3.72736328 12.75216797 -3.44921875 13.51953125 C-0.48118458 22.45407514 0.65578254 31.71441271 2 41 C2.20496094 39.78441406 2.40992188 38.56882813 2.62109375 37.31640625 C2.89301961 35.73173486 3.16516643 34.14710137 3.4375 32.5625 C3.57220703 31.76005859 3.70691406 30.95761719 3.84570312 30.13085938 C4.88671875 24.11328125 4.88671875 24.11328125 6 23 C6.39454223 21.15400312 6.74176866 19.29774178 7.0625 17.4375 C7.23910156 16.42558594 7.41570313 15.41367187 7.59765625 14.37109375 C7.73042969 13.58863281 7.86320312 12.80617188 8 12 C6.68 12 5.36 12 4 12 C4 8.04 4 4.08 4 0 C4.33 0 4.66 0 5 0 C5 3.63 5 7.26 5 11 C6.32 11 7.64 11 9 11 C8.5653571 20.22684784 7.13815434 28.8515989 4.9375 37.8125 C4.51500977 39.58463867 4.51500977 39.58463867 4.08398438 41.39257812 C3.39810796 44.26395903 2.7033803 47.13286651 2 50 C-0.25504911 46.61742633 -0.62552814 44.38042754 -1.2890625 40.390625 C-1.45128799 39.42307281 -1.45128799 39.42307281 -1.61679077 38.43597412 C-1.84376281 37.07150577 -2.06711922 35.70643172 -2.28710938 34.34082031 C-2.62180846 32.26974881 -2.97013654 30.2013167 -3.3203125 28.1328125 C-3.53988667 26.80221908 -3.75866196 25.47149352 -3.9765625 24.140625 C-4.17330566 22.93954102 -4.37004883 21.73845703 -4.57275391 20.50097656 C-5.00442548 16.96373639 -5.07456317 13.55967976 -5 10 C-3.68 10 -2.36 10 -1 10 C-1.020625 8.72125 -1.04125 7.4425 -1.0625 6.125 C-1.125 2.25 -1.125 2.25 0 0 Z " fill="#674A46" transform="translate(37,15)"/>
<path d="M0 0 C0.33 0 0.66 0 1 0 C3.29612756 9.41002278 3.29612756 9.41002278 3 14 C4.32 14.33 5.64 14.66 7 15 C7 18.63 7 22.26 7 26 C0.07 26 -6.86 26 -14 26 C-14 22.04 -14 18.08 -14 14 C-13.34 14 -12.68 14 -12 14 C-12 13.01 -12 12.02 -12 11 C-15.96 11 -19.92 11 -24 11 C-24 12.32 -24 13.64 -24 15 C-23.01 15 -22.02 15 -21 15 C-21 18.63 -21 22.26 -21 26 C-26.61 26 -32.22 26 -38 26 C-38 25.67 -38 25.34 -38 25 C-32.72 25 -27.44 25 -22 25 C-22 22.03 -22 19.06 -22 16 C-22.99 16 -23.98 16 -25 16 C-25 13.69 -25 11.38 -25 9 C-20.38 9 -15.76 9 -11 9 C-10.67 11.31 -10.34 13.62 -10 16 C-10.99 16 -11.98 16 -13 16 C-13 18.97 -13 21.94 -13 25 C-6.73 25 -0.46 25 6 25 C6 22.03 6 19.06 6 16 C4.68 16 3.36 16 2 16 C0.40837921 10.42932723 -0.20674944 5.78898419 0 0 Z " fill="#472924" transform="translate(94,57)"/>
<path d="M0 0 C4.57792062 4.57792062 5.86620003 14.08021514 6.08251953 20.41748047 C5.98695824 25.30489877 5.55279082 30.14505454 5 35 C1.85418577 35.02888514 -1.29159469 35.04675923 -4.4375 35.0625 C-5.33533203 35.07087891 -6.23316406 35.07925781 -7.15820312 35.08789062 C-8.43920898 35.09272461 -8.43920898 35.09272461 -9.74609375 35.09765625 C-10.53685303 35.10289307 -11.3276123 35.10812988 -12.14233398 35.11352539 C-14 35 -14 35 -15 34 C-15.07244053 31.98035801 -15.08377188 29.95832876 -15.0625 27.9375 C-15.05347656 26.83277344 -15.04445312 25.72804688 -15.03515625 24.58984375 C-15.02355469 23.73519531 -15.01195312 22.88054687 -15 22 C-14.67 22 -14.34 22 -14 22 C-14 25.63 -14 29.26 -14 33 C-8.06 33 -2.12 33 4 33 C4 29.37 4 25.74 4 22 C2.68 22 1.36 22 0 22 C0 14.74 0 7.48 0 0 Z " fill="#C2C0BF" transform="translate(181,50)"/>
<path d="M0 0 C0.33 0 0.66 0 1 0 C1 3.96 1 7.92 1 12 C0.01 12 -0.98 12 -2 12 C-2 30.15 -2 48.3 -2 67 C-2.99 67.495 -2.99 67.495 -4 68 C-4 48.86 -4 29.72 -4 10 C-3.01 10 -2.02 10 -1 10 C-1.020625 8.72125 -1.04125 7.4425 -1.0625 6.125 C-1.125 2.25 -1.125 2.25 0 0 Z " fill="#715350" transform="translate(148,15)"/>
<path d="M0 0 C6.6 0 13.2 0 20 0 C23.21428571 11.11607143 23.21428571 11.11607143 23 16 C20.05568104 11.58352156 19.86037292 7.22369271 19 2 C13.39 2 7.78 2 2 2 C2 4.64 2 7.28 2 10 C2.99 10 3.98 10 5 10 C5 25.51 5 41.02 5 57 C3.35 57 1.7 57 0 57 C1.98 56.505 1.98 56.505 4 56 C4 41.81 4 27.62 4 13 C2.68 13 1.36 13 0 13 C0 8.71 0 4.42 0 0 Z " fill="#58322C" transform="translate(167,15)"/>
<path d="M0 0 C2.22855574 -0.0814222 4.45797655 -0.13938079 6.6875 -0.1875 C8.54955078 -0.23970703 8.54955078 -0.23970703 10.44921875 -0.29296875 C14.22330243 0.01842429 16.06482127 0.64745975 19 3 C19.6875 5.9375 19.6875 5.9375 19 9 C15.01485345 12.52175741 13.43612813 13 8 13 C8 9.37 8 5.74 8 2 C5.36 1.67 2.72 1.34 0 1 C0 0.67 0 0.34 0 0 Z " fill="#363230" transform="translate(241,96)"/>
<path d="M0 0 C2.04315802 3.06473703 2.74260315 5.26954295 3.625 8.8125 C3.88539062 9.82957031 4.14578125 10.84664062 4.4140625 11.89453125 C5.001462 15.00774858 5.10390886 17.84022615 5 21 C1.7 21 -1.6 21 -5 21 C-4.28649612 16.53374016 -3.43457158 12.11269645 -2.5 7.6875 C-2.2421875 6.45386719 -1.984375 5.22023438 -1.71875 3.94921875 C-1 1 -1 1 0 0 Z " fill="#663935" transform="translate(76,37)"/>
<path d="M0 0 C1.65 0 3.3 0 5 0 C5 1.98 5 3.96 5 6 C6.65 6 8.3 6 10 6 C9.125 13.75 9.125 13.75 8 16 C5.36 16 2.72 16 0 16 C0 10.72 0 5.44 0 0 Z " fill="#DEDDDC" transform="translate(427,55)"/>
<path d="M0 0 C1.65 0 3.3 0 5 0 C5 1.98 5 3.96 5 6 C6.65 6 8.3 6 10 6 C9.69201674 7.48011371 9.378482 8.95907325 9.0625 10.4375 C8.88847656 11.26121094 8.71445313 12.08492187 8.53515625 12.93359375 C8 15 8 15 7 16 C4.69 16 2.38 16 0 16 C0 10.72 0 5.44 0 0 Z " fill="#DFDFDE" transform="translate(245,55)"/>
<path d="M0 0 C4.875 0.875 4.875 0.875 6 2 C6.09851171 3.83115883 6.12972629 5.66619933 6.125 7.5 C6.12757813 8.5003125 6.13015625 9.500625 6.1328125 10.53125 C6 13 6 13 5 14 C2.0625 14.25 2.0625 14.25 -1 14 C-3.47342266 10.28986601 -3.38503486 8.38939738 -3 4 C-1.5 1.5625 -1.5 1.5625 0 0 Z " fill="#EDEDEB" transform="translate(273,98)"/>
<path d="M0 0 C4 1 4 1 5 2 C5.04063832 3.66617115 5.042721 5.33388095 5 7 C5.99 7 6.98 7 8 7 C11 11.22222222 11 11.22222222 11 14 C11.99 14 12.98 14 14 14 C14 14.99 14 15.98 14 17 C8.66912345 17.43695709 8.66912345 17.43695709 6 17 C3.97170628 14.59140121 3 13.16955691 3 10 C2.01 9.67 1.02 9.34 0 9 C0 6.03 0 3.06 0 0 Z " fill="#363131" transform="translate(298,98)"/>
<path d="M0 0 C7.875 0.875 7.875 0.875 9 2 C9.25 4.375 9.25 4.375 9 7 C7.5 8.8125 7.5 8.8125 6 10 C7.92576115 12.43929746 9.80090595 14.80090595 12 17 C5.63636364 17.48951049 5.63636364 17.48951049 2.5625 15.125 C1 13 1 13 1 11 C0.01 10.67 -0.98 10.34 -2 10 C-2 9.34 -2 8.68 -2 8 C-0.68 7.67 0.64 7.34 2 7 C1.34414811 3.39007621 1.34414811 3.39007621 0 0 Z " fill="#292523" transform="translate(159,97)"/>
<path d="M0 0 C0.66 0.66 1.32 1.32 2 2 C2.99 2 3.98 2 5 2 C5.33 4.31 5.66 6.62 6 9 C4.35 9.66 2.7 10.32 1 11 C1 12.65 1 14.3 1 16 C-3.95 16 -8.9 16 -14 16 C-14.33 15.34 -14.66 14.68 -15 14 C-13.906875 14.020625 -12.81375 14.04125 -11.6875 14.0625 C-8.05615809 14.18544452 -8.05615809 14.18544452 -5 13 C-4.9175 12.34 -4.835 11.68 -4.75 11 C-3.75240209 7.00960837 -1.92833317 3.61450357 0 0 Z " fill="#3C3736" transform="translate(177,99)"/>
<path d="M0 0 C4 1 4 1 6 4 C6.30078125 6.77734375 6.30078125 6.77734375 6.3125 9.9375 C6.32925781 10.97777344 6.34601563 12.01804687 6.36328125 13.08984375 C5.95825092 16.33444157 5.33281037 17.73274871 3 20 C2.01 20 1.02 20 0 20 C0 13.4 0 6.8 0 0 Z " fill="#E4E3E3" transform="translate(285,27)"/>
<path d="M0 0 C16.335 0.495 16.335 0.495 33 1 C33 1.33 33 1.66 33 2 C22.77 2 12.54 2 2 2 C2 4.64 2 7.28 2 10 C2.99 10 3.98 10 5 10 C5 25.18 5 40.36 5 56 C4.67 56 4.34 56 4 56 C4 41.48 4 26.96 4 12 C2.68 12 1.36 12 0 12 C0 8.04 0 4.08 0 0 Z " fill="#663B37" transform="translate(227,15)"/>
<path d="M0 0 C2.33294775 -0.04241723 4.66702567 -0.04092937 7 0 C8 1 8 1 8.09765625 2.84765625 C8.04882812 5.92382812 8.04882812 5.92382812 8 9 C7.01 9 6.02 9 5 9 C5 10.65 5 12.3 5 14 C3.0625 14.5625 3.0625 14.5625 1 15 C0 14 0 14 -0.09765625 10.83984375 C-0.08025391 8.90818359 -0.08025391 8.90818359 -0.0625 6.9375 C-0.05347656 5.64714844 -0.04445312 4.35679688 -0.03515625 3.02734375 C-0.02355469 2.02832031 -0.01195312 1.02929688 0 0 Z " fill="#DBDBDA" transform="translate(245,28)"/>
<path d="M0 0 C6.27 0 12.54 0 19 0 C19 3.96 19 7.92 19 12 C17.68 12.33 16.36 12.66 15 13 C14.01 16.96 13.02 20.92 12 25 C11.34 25 10.68 25 10 25 C10.99 20.38 11.98 15.76 13 11 C14.32 10.67 15.64 10.34 17 10 C17 7.36 17 4.72 17 2 C11.72 2 6.44 2 1 2 C1 4.64 1 7.28 1 10 C2.32 10 3.64 10 5 10 C4.67 10.99 4.34 11.98 4 13 C4 12.34 4 11.68 4 11 C2.68 11 1.36 11 0 11 C0 7.37 0 3.74 0 0 Z " fill="#4F1C16" transform="translate(42,15)"/>
<path d="M0 0 C7.92 0 15.84 0 24 0 C24 0.66 24 1.32 24 2 C16.74 2 9.48 2 2 2 C2 4.64 2 7.28 2 10 C2.99 10 3.98 10 5 10 C5.50904657 11.87256417 6.00682455 13.74819341 6.5 15.625 C6.7784375 16.66914063 7.056875 17.71328125 7.34375 18.7890625 C7.99118596 21.95687418 8.1161292 24.77741467 8 28 C7.67 28 7.34 28 7 28 C6.49595192 25.89679937 5.99689492 23.79240209 5.5 21.6875 C5.08234375 19.92986328 5.08234375 19.92986328 4.65625 18.13671875 C4 15 4 15 4 12 C2.68 12 1.36 12 0 12 C0 8.04 0 4.08 0 0 Z " fill="#552D29" transform="translate(13,15)"/>
<path d="M0 0 C1.65 0 3.3 0 5 0 C7.48076864 2.48076864 7.35091557 3.44218209 7.4375 6.875 C7.35205705 10.57040753 7.28322612 11.63953039 4.9375 14.625 C1.40983272 16.27624851 -1.14850705 16.30207788 -5 16 C-5 15.67 -5 15.34 -5 15 C-3.35 14.67 -1.7 14.34 0 14 C0 9.38 0 4.76 0 0 Z " fill="#272220" transform="translate(279,98)"/>
<path d="M0 0 C6.93 0 13.86 0 21 0 C21 1.98 21 3.96 21 6 C19.68 6 18.36 6 17 6 C17 5.01 17 4.02 17 3 C16.01 3 15.02 3 14 3 C14 7.29 14 11.58 14 16 C13.67 16 13.34 16 13 16 C12.67 11.05 12.34 6.1 12 1 C7.28941438 1.83462035 7.28941438 1.83462035 4 3 C4 3.99 4 4.98 4 6 C2.68 6 1.36 6 0 6 C0 4.02 0 2.04 0 0 Z " fill="#413D3B" transform="translate(126,96)"/>
<path d="M0 0 C0.33 0 0.66 0 1 0 C0.72835909 6.38356146 -1.50897503 11.38966887 -6 16 C-12.56498186 20.95053867 -19.60106482 20.47568386 -27.5 20.25 C-28.70398438 20.23195313 -29.90796875 20.21390625 -31.1484375 20.1953125 C-34.0993048 20.14847334 -37.04975888 20.07674038 -40 20 C-40 16.37 -40 12.74 -40 9 C-38.68 9.33 -37.36 9.66 -36 10 C-36.99 10 -37.98 10 -39 10 C-39 12.97 -39 15.94 -39 19 C-35.33221462 18.94765464 -31.6667003 18.85247158 -28 18.75 C-26.97003906 18.73582031 -25.94007813 18.72164062 -24.87890625 18.70703125 C-16.72713926 18.44742084 -11.08812179 17.01949686 -5.1875 11.25 C-2.6934753 7.54459187 -1.38636718 4.23206822 0 0 Z " fill="#44231F" transform="translate(402,63)"/>
<path d="M0 0 C0.33 0 0.66 0 1 0 C1 10.89 1 21.78 1 33 C-0.65 33 -2.3 33 -4 33 C-2.515 32.505 -2.515 32.505 -1 32 C-1.33 26.72 -1.66 21.44 -2 16 C-2.66 17.32 -3.32 18.64 -4 20 C-2.62131519 2.62131519 -2.62131519 2.62131519 0 0 Z " fill="#6A4C48" transform="translate(207,39)"/>
<path d="M0 0 C1.15939251 3.69197702 0.52211554 5.99916627 -0.49755859 9.71191406 C-1.41765772 13.90198648 -1.32798059 18.10235689 -1.3125 22.375 C-1.32861328 23.25671875 -1.34472656 24.1384375 -1.36132812 25.046875 C-1.36713691 32.97006081 0.31064674 39.97370931 4 47 C3.01 47.495 3.01 47.495 2 48 C1.17697857 46.15047952 0.36708634 44.29511436 -0.4375 42.4375 C-0.88996094 41.40496094 -1.34242188 40.37242188 -1.80859375 39.30859375 C-6.43856652 26.45093166 -4.77878922 12.45898618 0 0 Z " fill="#5F3933" transform="translate(315,28)"/>
<path d="M0 0 C1.98 0 3.96 0 6 0 C7 1 7 1 7.09765625 2.84765625 C7.06510417 4.8984375 7.03255208 6.94921875 7 9 C6.01 9 5.02 9 4 9 C4 10.65 4 12.3 4 14 C2.68 14 1.36 14 0 14 C0 9.38 0 4.76 0 0 Z " fill="#EDEEED" transform="translate(428,28)"/>
<path d="M0 0 C0.66 0 1.32 0 2 0 C0.58639307 5.69981877 -0.87576553 11.38464803 -2.375 17.0625 C-2.69936035 18.29226562 -2.69936035 18.29226562 -3.03027344 19.546875 C-3.68608627 22.03145224 -4.34291966 24.5157577 -5 27 C-5.29922363 28.13284424 -5.29922363 28.13284424 -5.60449219 29.28857422 C-6.15180934 31.35936586 -6.70058065 33.42976525 -7.25 35.5 C-7.56453125 36.6859375 -7.8790625 37.871875 -8.203125 39.09375 C-8.74728794 41.07834425 -9.34925215 43.04775645 -10 45 C-13.96 45 -17.92 45 -22 45 C-22 44.67 -22 44.34 -22 44 C-17.05 43.505 -17.05 43.505 -12 43 C-11.34 40.36 -10.68 37.72 -10 35 C-9.34 35 -8.68 35 -8 35 C-7.9175 33.865625 -7.835 32.73125 -7.75 31.5625 C-6.56314002 20.86380503 -3.67128245 10.09602675 0 0 Z " fill="#5F3630" transform="translate(52,40)"/>
<path d="M0 0 C3.33405792 1.88300032 5.48579948 4.10369922 7.625 7.3125 C4.0374787 5.97999209 0.7885377 4.481783 -2.375 2.3125 C-2.375 1.6525 -2.375 0.9925 -2.375 0.3125 C-12.83649902 0.3479027 -19.00658461 2.92263859 -26.4375 10.1875 C-27.076875 10.88875 -27.71625 11.59 -28.375 12.3125 C-26.41646737 6.08080525 -22.11444257 2.09152376 -16.390625 -0.95703125 C-10.88298177 -2.95301824 -5.27000914 -2.40438034 0 0 Z " fill="#553935" transform="translate(344.375,15.6875)"/>
<path d="M0 0 C1.65 0 3.3 0 5 0 C8.5716952 3.5716952 9.14828819 7.54685732 9.25 12.4375 C9.19940064 17.56490137 7.60947107 20.39052893 4 24 C2.68 24 1.36 24 0 24 C0 16.08 0 8.16 0 0 Z M1 2 C1 8.6 1 15.2 1 22 C5.20180184 21.4260261 5.20180184 21.4260261 7 18 C7.35576336 15.16461571 7.35576336 15.16461571 7.3125 12.0625 C7.32925781 11.02222656 7.34601563 9.98195313 7.36328125 8.91015625 C6.95825092 5.66555843 6.33281037 4.26725129 4 2 C3.01 2 2.02 2 1 2 Z " fill="#3F2117" transform="translate(284,25)"/>
<path d="M0 0 C0.99 0.33 1.98 0.66 3 1 C3.33 2.98 3.66 4.96 4 7 C3.67 7 3.34 7 3 7 C2.67 13.27 2.34 19.54 2 26 C3.32 26 4.64 26 6 26 C6 28.31 6 30.62 6 33 C5.67 33 5.34 33 5 33 C5 31.35 5 29.7 5 28 C3.35 28 1.7 28 0 28 C0 18.76 0 9.52 0 0 Z " fill="#674946" transform="translate(115,45)"/>
<path d="M0 0 C10.56 0 21.12 0 32 0 C32 5.61 32 11.22 32 17 C30.02 17.33 28.04 17.66 26 18 C25.67 16.68 25.34 15.36 25 14 C27 13 27 13 31 14 C31 9.71 31 5.42 31 1 C21.1 1 11.2 1 1 1 C1.33 3.31 1.66 5.62 2 8 C1.34 8 0.68 8 0 8 C0 5.36 0 2.72 0 0 Z " fill="#C02620" transform="translate(411,17)"/>
<path d="M0 0 C5.94 0 11.88 0 18 0 C18 4.29 18 8.58 18 13 C17.01 12.67 16.02 12.34 15 12 C15.66 12 16.32 12 17 12 C16.67 11.34 16.34 10.68 16 10 C15.86584528 7.3276379 15.95681459 4.67749512 16 2 C11.05 2 6.1 2 1 2 C0.01 6.62 -0.98 11.24 -2 16 C-2.33 16 -2.66 16 -3 16 C-2.88325099 14.64509704 -2.75606577 13.29109304 -2.625 11.9375 C-2.55539063 11.18339844 -2.48578125 10.42929687 -2.4140625 9.65234375 C-1.90250577 6.37548507 -0.91112591 3.18894068 0 0 Z " fill="#542822" transform="translate(205,15)"/>
<path d="M0 0 C0.66 0 1.32 0 2 0 C4.5466871 6.61396893 6.63125844 13.04223041 8 20 C7.34 20.33 6.68 20.66 6 21 C5.34 21.99 4.68 22.98 4 24 C4 20.37 4 16.74 4 13 C2.68 13 1.36 13 0 13 C0 8.71 0 4.42 0 0 Z " fill="#C8C9C8" transform="translate(285,59)"/>
<path d="M0 0 C0.33 0 0.66 0 1 0 C1.14510162 3.27036728 1.23399373 6.53991007 1.3125 9.8125 C1.35439453 10.74126953 1.39628906 11.67003906 1.43945312 12.62695312 C1.4854584 15.17564524 1.47942239 17.49532161 1 20 C-1.39453125 22.01171875 -1.39453125 22.01171875 -4 23 C-4.66 23.66 -5.32 24.32 -6 25 C-5.4138281 19.07090494 -4.19595619 13.68419734 -2.4375 8 C-2.20353516 7.22527344 -1.96957031 6.45054688 -1.72851562 5.65234375 C-1.15809962 3.7664786 -0.57987197 1.8829791 0 0 Z " fill="#EEEEED" transform="translate(205,51)"/>
<path d="M0 0 C1.8125 0.5 1.8125 0.5 4 2 C7.71631229 9.98318936 8.08384892 17.61743382 8.1875 26.3125 C8.20063232 27.01890625 8.21376465 27.7253125 8.22729492 28.453125 C8.23312818 32.19359168 8.12853147 33.8072028 6 37 C6 29.41 6 21.82 6 14 C5.34 14 4.68 14 4 14 C3.87882812 13.40832031 3.75765625 12.81664062 3.6328125 12.20703125 C2.73255357 7.96196415 1.79543379 3.97560339 0 0 Z " fill="#60322C" transform="translate(350,23)"/>
<path d="M0 0 C0.33 0 0.66 0 1 0 C1 5.94 1 11.88 1 18 C3.31 18 5.62 18 8 18 C8 16.35 8 14.7 8 13 C9.98 13 11.96 13 14 13 C14 19.6 14 26.2 14 33 C12.02 33 10.04 33 8 33 C8 31.35 8 29.7 8 28 C8.33 29.32 8.66 30.64 9 32 C10.32 32 11.64 32 13 32 C13 27.05 13 22.1 13 17 C12.34 17 11.68 17 11 17 C11 16.34 11 15.68 11 15 C10.34 14.67 9.68 14.34 9 14 C9 15.65 9 17.3 9 19 C6.03 19 3.06 19 0 19 C0 12.73 0 6.46 0 0 Z " fill="#B42520" transform="translate(243,26)"/>
<path d="M0 0 C0.33 0 0.66 0 1 0 C1.03738281 1.26714844 1.07476562 2.53429688 1.11328125 3.83984375 C1.17899793 5.53908931 1.24544323 7.2383068 1.3125 8.9375 C1.33505859 9.76830078 1.35761719 10.59910156 1.38085938 11.45507812 C1.76128526 20.89459879 1.76128526 20.89459879 6 29 C8.37305578 29.41780879 8.37305578 29.41780879 11 29 C13.31377147 27.10415891 13.31377147 27.10415891 15 25 C15 26.98 15 28.96 15 31 C7.01454545 32.41622378 7.01454545 32.41622378 3.5625 31 C-0.99723779 25.16353563 -0.24358669 17.57279793 -0.125 10.5625 C-0.11597656 9.54478516 -0.10695313 8.52707031 -0.09765625 7.47851562 C-0.07424698 4.98542844 -0.041457 2.49284141 0 0 Z " fill="#5F3E3A" transform="translate(326,42)"/>
<path d="M0 0 C5.28 0 10.56 0 16 0 C21 9.75 21 9.75 21 12 C20.01 11.67 19.02 11.34 18 11 C16.66140666 8.0859429 15.91238901 5.0847438 15 2 C10.38 2 5.76 2 1 2 C1 4.97 1 7.94 1 11 C1.99 11.33 2.98 11.66 4 12 C2.68 12 1.36 12 0 12 C0 8.04 0 4.08 0 0 Z " fill="#482521" transform="translate(102,15)"/>
<path d="M0 0 C2.97 0 5.94 0 9 0 C8.67 6.27 8.34 12.54 8 19 C7.67 19 7.34 19 7 19 C6.67 14.38 6.34 9.76 6 5 C4.03177114 6.96822886 4.33751619 10.34808709 4 13 C3.01 13 2.02 13 1 13 C0.67 11.68 0.34 10.36 0 9 C0.99 9.495 0.99 9.495 2 10 C2.33 7.69 2.66 5.38 3 3 C2.01 3 1.02 3 0 3 C0 2.01 0 1.02 0 0 Z " fill="#565251" transform="translate(209,96)"/>
<path d="M0 0 C1.09178911 3.27536732 0.93042848 4.04413619 0.00390625 7.23046875 C-0.22490234 8.03291016 -0.45371094 8.83535156 -0.68945312 9.66210938 C-0.93630859 10.49548828 -1.18316406 11.32886719 -1.4375 12.1875 C-1.68048828 13.03248047 -1.92347656 13.87746094 -2.17382812 14.74804688 C-2.77493493 16.8342411 -3.38647834 18.91742301 -4 21 C-6.97 21 -9.94 21 -13 21 C-13.99 16.38 -14.98 11.76 -16 7 C-12.23452331 10.76547669 -12.08651531 12.90173585 -11 18 C-9.35 18 -7.7 18 -6 18 C-5.65066406 16.86820313 -5.30132812 15.73640625 -4.94140625 14.5703125 C-4.48186105 13.08851369 -4.02222069 11.60674438 -3.5625 10.125 C-3.33240234 9.37863281 -3.10230469 8.63226563 -2.86523438 7.86328125 C-1.11328125 2.2265625 -1.11328125 2.2265625 0 0 Z " fill="#5A342F" transform="translate(202,59)"/>
<path d="M0 0 C5.4389165 -0.21755666 9.87080814 -0.10428384 15 2 C15.042721 3.66611905 15.04063832 5.33382885 15 7 C14 8 14 8 11.4375 8.0625 C10.633125 8.041875 9.82875 8.02125 9 8 C8.5978125 6.5459375 8.5978125 6.5459375 8.1875 5.0625 C7.795625 4.051875 7.40375 3.04125 7 2 C6.01 1.67 5.02 1.34 4 1 C4 3.31 4 5.62 4 8 C3.67 8 3.34 8 3 8 C3 5.69 3 3.38 3 1 C2.01 0.67 1.02 0.34 0 0 Z " fill="#292422" transform="translate(294,97)"/>
<path d="M0 0 C2.13586678 3.20380017 2.23132175 4.01939967 2.125 7.6875 C2.10695313 8.49574219 2.08890625 9.30398437 2.0703125 10.13671875 C2.03550781 11.05904297 2.03550781 11.05904297 2 12 C1.34 12 0.68 12 0 12 C-0.12375 13.299375 -0.2475 14.59875 -0.375 15.9375 C-0.5859375 18.15234375 -0.5859375 18.15234375 -1 20 C-1.66 20.33 -2.32 20.66 -3 21 C-3.43230491 13.65081658 -1.81774185 7.09784913 0 0 Z " fill="#8E3C37" transform="translate(72,15)"/>
<path d="M0 0 C2.76223278 2.76223278 2.57856291 5.20706617 3 9 C3.66 9 4.32 9 5 9 C6.46670113 14.22512279 7.22577402 18.5814234 7 24 C6.34 23.67 5.68 23.34 5 23 C4.24253858 20.43469121 3.59044215 17.91644214 3 15.3125 C1.86753139 10.45084765 0.66372462 5.71636219 -1 1 C-0.67 0.67 -0.34 0.34 0 0 Z " fill="#743430" transform="translate(288,59)"/>
<path d="M0 0 C0.33 0 0.66 0 1 0 C1 5.28 1 10.56 1 16 C4.465 15.505 4.465 15.505 8 15 C8.66 13.02 9.32 11.04 10 9 C10.66 9.33 11.32 9.66 12 10 C10.125 16.875 10.125 16.875 9 18 C6.03 18 3.06 18 0 18 C0 12.06 0 6.12 0 0 Z " fill="#5C322D" transform="translate(244,55)"/>
<path d="M0 0 C0.33 0 0.66 0 1 0 C1 3.96 1 7.92 1 12 C-0.32 12.33 -1.64 12.66 -3 13 C-4.485 18.94 -4.485 18.94 -6 25 C-6.66 25 -7.32 25 -8 25 C-7.01 20.38 -6.02 15.76 -5 11 C-3.68 10.67 -2.36 10.34 -1 10 C-1.020625 8.72125 -1.04125 7.4425 -1.0625 6.125 C-1.125 2.25 -1.125 2.25 0 0 Z " fill="#5B2E27" transform="translate(60,15)"/>
<path d="M0 0 C3.04229482 2.77774745 3.93014262 4.76856061 4.16796875 8.9609375 C4.17441406 10.08757813 4.18085938 11.21421875 4.1875 12.375 C4.20167969 13.49648438 4.21585937 14.61796875 4.23046875 15.7734375 C3.93936701 19.84886186 3.11759858 22.75344774 0.375 25.8125 C-0.07875 26.204375 -0.5325 26.59625 -1 27 C-0.58028595 23.99204933 -0.15549794 21.35673058 1.0625 18.5625 C2.99432225 13.28218586 2.1663965 9.0097919 0 4 C0 2.68 0 1.36 0 0 Z " fill="#5E433D" transform="translate(302,22)"/>
<path d="M0 0 C0.33 0 0.66 0 1 0 C1.08156437 2.85475306 1.14076372 5.70713565 1.1875 8.5625 C1.21263672 9.36236328 1.23777344 10.16222656 1.26367188 10.98632812 C1.34778648 17.85568727 -0.15108599 22.22662899 -4 28 C-5.32 27.67 -6.64 27.34 -8 27 C-7.401875 26.46375 -6.80375 25.9275 -6.1875 25.375 C-1.30199891 20.07074167 -0.51739741 15.0329699 -0.3125 8.125 C-0.27833984 7.34125 -0.24417969 6.5575 -0.20898438 5.75 C-0.12719588 3.83381252 -0.0619054 1.91693285 0 0 Z " fill="#664B48" transform="translate(391,44)"/>
<path d="M0 0 C2.31 0 4.62 0 7 0 C7 1.98 7 3.96 7 6 C9.31 6 11.62 6 14 6 C14 7.32 14 8.64 14 10 C13.34 10 12.68 10 12 10 C11.67 10.66 11.34 11.32 11 12 C11 10.68 11 9.36 11 8 C9.35 8 7.7 8 6 8 C6 6.02 6 4.04 6 2 C4.02 2 2.04 2 0 2 C0 1.34 0 0.68 0 0 Z " fill="#431F1A" transform="translate(244,53)"/>
<path d="M0 0 C1.33333333 0 2.66666667 0 4 0 C4 3.96 4 7.92 4 12 C3.34 11.67 2.68 11.34 2 11 C1.34 11.66 0.68 12.32 0 13 C0 8.71 0 4.42 0 0 Z " fill="#DFE1DF" transform="translate(223,15)"/>
<path d="M0 0 C1.93888831 2.90833247 3.13268926 5.58095937 4.4375 8.8125 C5.79501966 12.14788954 7.14426752 15.40411262 8.875 18.5625 C10 21 10 21 9 24 C8.70996094 23.41734375 8.41992188 22.8346875 8.12109375 22.234375 C7.43426428 20.86550232 6.74055701 19.50002079 6.03515625 18.140625 C0 6.40963855 0 6.40963855 0 0 Z " fill="#623F3A" transform="translate(123,27)"/>
<path d="M0 0 C0.99 1.485 0.99 1.485 2 3 C1.01 3 0.02 3 -1 3 C-1.55171875 2.36578125 -2.1034375 1.7315625 -2.671875 1.078125 C-5.88935519 -1.79385396 -9.11813546 -1.89959453 -13.25 -2.25 C-13.99507813 -2.32734375 -14.74015625 -2.4046875 -15.5078125 -2.484375 C-17.33699628 -2.67198359 -19.16835874 -2.83813403 -21 -3 C-21 -3.33 -21 -3.66 -21 -4 C-12.86269001 -5.52574562 -6.69997149 -5.42378644 0 0 Z " fill="#532E2A" transform="translate(397,20)"/>
<path d="M0 0 C1.65 0.33 3.3 0.66 5 1 C5 1.66 5 2.32 5 3 C6.32 3 7.64 3 9 3 C9.33 2.01 9.66 1.02 10 0 C9.67 2.31 9.34 4.62 9 7 C4.05 5.02 4.05 5.02 -1 3 C-0.67 2.01 -0.34 1.02 0 0 Z " fill="#D5D4D2" transform="translate(228,99)"/>
<path d="M0 0 C5.08777417 1.20888993 8.51009957 4.22621392 11.28515625 8.54296875 C7.69763495 7.21046084 4.44869395 5.71225175 1.28515625 3.54296875 C1.28515625 2.88296875 1.28515625 2.22296875 1.28515625 1.54296875 C-2.34484375 1.54296875 -5.97484375 1.54296875 -9.71484375 1.54296875 C-5.95848139 -0.96127282 -4.30716763 -0.59529959 0 0 Z " fill="#3B221B" transform="translate(340.71484375,14.45703125)"/>
<path d="M0 0 C0.66 0 1.32 0 2 0 C1.52229477 1.93786085 1.04278429 3.87527674 0.5625 5.8125 C0.29566406 6.89144531 0.02882813 7.97039062 -0.24609375 9.08203125 C-0.76077412 11.0740843 -1.34937175 13.04811524 -2 15 C-5.96 15 -9.92 15 -14 15 C-14 14.67 -14 14.34 -14 14 C-10.7 13.67 -7.4 13.34 -4 13 C-3.34 10.36 -2.68 7.72 -2 5 C-1.34 5 -0.68 5 0 5 C0 3.35 0 1.7 0 0 Z " fill="#715451" transform="translate(44,70)"/>
<path d="M0 0 C0.33 0 0.66 0 1 0 C2.10228696 4.40914783 2.07654536 8.48382401 2 13 C0.68 13 -0.64 13 -2 13 C-1.85915204 11.20793453 -1.71216299 9.41635083 -1.5625 7.625 C-1.48128906 6.62726562 -1.40007812 5.62953125 -1.31640625 4.6015625 C-1 2 -1 2 0 0 Z " fill="#E4E5E5" transform="translate(76,42)"/>
<path d="M0 0 C1.97419933 2.961299 2.45168745 4.52413573 3.0625 7.9375 C3.71535246 11.57217543 3.71535246 11.57217543 4.68359375 15.12890625 C5 17 5 17 3 20 C2.49550598 17.41747107 1.99625699 14.83411297 1.5 12.25 C1.35691406 11.52039062 1.21382812 10.79078125 1.06640625 10.0390625 C0.41111121 6.60656468 0 3.50830509 0 0 Z " fill="#5E312D" transform="translate(35,45)"/>
<path d="M0 0 C1.8125 0.5 1.8125 0.5 4 2 C5.81213892 5.31738334 7.28916393 8.46663529 6.57421875 12.2578125 C6.38472656 12.83273438 6.19523437 13.40765625 6 14 C5.34 14 4.68 14 4 14 C3.87882812 13.40832031 3.75765625 12.81664062 3.6328125 12.20703125 C2.73255357 7.96196415 1.79543379 3.97560339 0 0 Z " fill="#783A35" transform="translate(350,23)"/>
<path d="M0 0 C2 2 2 2 2.1953125 3.9453125 C2.13020833 5.96354167 2.06510417 7.98177083 2 10 C3.32 10 4.64 10 6 10 C5.67 11.32 5.34 12.64 5 14 C5 13.34 5 12.68 5 12 C3.35 12 1.7 12 0 12 C0 8.04 0 4.08 0 0 Z " fill="#644039" transform="translate(409,15)"/>
<path d="M0 0 C1.32 0.33 2.64 0.66 4 1 C4.33 2.65 4.66 4.3 5 6 C3.35 6.33 1.7 6.66 0 7 C0 4.69 0 2.38 0 0 Z " fill="#C8C6C5" transform="translate(298,98)"/>
<path d="M0 0 C1.32 0.33 2.64 0.66 4 1 C4.33 2.65 4.66 4.3 5 6 C3.35 6.33 1.7 6.66 0 7 C0 4.69 0 2.38 0 0 Z " fill="#C5C3C1" transform="translate(157,98)"/>
<path d="M0 0 C0.66 0 1.32 0 2 0 C1.125 4.75 1.125 4.75 0 7 C-1.32 7 -2.64 7 -4 7 C-4 10.3 -4 13.6 -4 17 C-4.33 17 -4.66 17 -5 17 C-5 13.04 -5 9.08 -5 5 C-3.68 5 -2.36 5 -1 5 C-0.67 3.35 -0.34 1.7 0 0 Z " fill="#632F2A" transform="translate(60,66)"/>
<path d="M0 0 C2.97 0.33 5.94 0.66 9 1 C11.21538462 7.4 11.21538462 7.4 10.125 10.4375 C9.75375 10.953125 9.3825 11.46875 9 12 C8.77213542 9.94921875 8.54427083 7.8984375 8.31640625 5.84765625 C8.18113386 3.98859771 8.18113386 3.98859771 7 3 C4.67182036 2.63239269 2.3381615 2.29758419 0 2 C0 1.34 0 0.68 0 0 Z " fill="#5B241D" transform="translate(426,25)"/>
<path d="M0 0 C2.64 0.99 5.28 1.98 8 3 C8 3.99 8 4.98 8 6 C6.35 6 4.7 6 3 6 C2.67 5.01 2.34 4.02 2 3 C-0.01508358 2.26676204 -0.01508358 2.26676204 -2 2 C-1.34 2 -0.68 2 0 2 C0 1.34 0 0.68 0 0 Z " fill="#E4E4E3" transform="translate(223,106)"/>
<path d="M0 0 C1.32 0.33 2.64 0.66 4 1 C4.625 2.875 4.625 2.875 5 5 C4.34 5.66 3.68 6.32 3 7 C2.01 7 1.02 7 0 7 C0 4.69 0 2.38 0 0 Z " fill="#E1DFDE" transform="translate(249,99)"/>
<path d="M0 0 C2.29141286 -0.05384521 4.58318188 -0.09272087 6.875 -0.125 C8.78925781 -0.15980469 8.78925781 -0.15980469 10.7421875 -0.1953125 C14 0 14 0 16 2 C15.01 2.33 14.02 2.66 13 3 C12.67 3.66 12.34 4.32 12 5 C11.505 4.525625 11.01 4.05125 10.5 3.5625 C7.00531349 1.37832093 4.09033064 1.34086089 0 1 C0 0.67 0 0.34 0 0 Z " fill="#494544" transform="translate(241,96)"/>
<path d="M0 0 C1.67542976 0.28604898 3.34385343 0.61781233 5 1 C2.48169253 4.12270126 1.2738451 4.94523098 -2.75 5.75 C-4.35875 5.87375 -4.35875 5.87375 -6 6 C-5.01 5.67 -4.02 5.34 -3 5 C-1.8499169 3.03327085 -1.8499169 3.03327085 -1 1 C-0.67 0.67 -0.34 0.34 0 0 Z " fill="#C9231F" transform="translate(390,75)"/>
<path d="M0 0 C0.33 0.99 0.66 1.98 1 3 C1.99 3 2.98 3 4 3 C4.33 2.34 4.66 1.68 5 1 C4.67 4.3 4.34 7.6 4 11 C3.34 11 2.68 11 2 11 C0.80712589 7.12315913 0 4.08378077 0 0 Z " fill="#CFCECD" transform="translate(193,40)"/>
<path d="M0 0 C2.31 0 4.62 0 7 0 C6.67 1.65 6.34 3.3 6 5 C4.35 5 2.7 5 1 5 C0.67 3.35 0.34 1.7 0 0 Z " fill="#CFCECD" transform="translate(177,110)"/>
<path d="M0 0 C2.39763185 2.39763185 2.34280586 3.33273498 2.625 6.625 C2.69976562 7.44226563 2.77453125 8.25953125 2.8515625 9.1015625 C2.90054687 9.72804688 2.94953125 10.35453125 3 11 C2.01 11 1.02 11 0 11 C0 7.37 0 3.74 0 0 Z " fill="#EEEFEE" transform="translate(286,60)"/>
<path d="M0 0 C2.6444211 2.21790157 3.88097442 3.56967674 4.8125 6.9375 C4.99248942 9.87732724 4.75033374 12.16540585 4 15 C3.67 15 3.34 15 3 15 C2.95101563 14.38511719 2.90203125 13.77023438 2.8515625 13.13671875 C2.77679688 12.32847656 2.70203125 11.52023438 2.625 10.6875 C2.55539062 9.88699219 2.48578125 9.08648437 2.4140625 8.26171875 C2.10435574 5.72775559 2.10435574 5.72775559 0 3 C-0.99 2.34 -1.98 1.68 -3 1 C-2.01 0.67 -1.02 0.34 0 0 Z " fill="#644540" transform="translate(288,25)"/>
<path d="M0 0 C2.64 0 5.28 0 8 0 C8 1.65 8 3.3 8 5 C6.68 5 5.36 5 4 5 C3.67 4.01 3.34 3.02 3 2 C2.01 1.34 1.02 0.68 0 0 Z " fill="#282424" transform="translate(139,97)"/>
<path d="M0 0 C0.99 0 1.98 0 3 0 C4.75 2.375 4.75 2.375 6 5 C5.67 5.66 5.34 6.32 5 7 C4.01 7 3.02 7 2 7 C2 6.01 2 5.02 2 4 C1.34 4 0.68 4 0 4 C0 2.68 0 1.36 0 0 Z " fill="#CBCAC8" transform="translate(298,108)"/>
<path d="M0 0 C0.33 0 0.66 0 1 0 C1.37851209 5.93002267 0.10575375 10.47239641 -2 16 C-2.33 16 -2.66 16 -3 16 C-3 14.02 -3 12.04 -3 10 C-2.34 10 -1.68 10 -1 10 C-0.67 6.7 -0.34 3.4 0 0 Z " fill="#B5241D" transform="translate(355,53)"/>
<path d="M0 0 C0.33 1.32 0.66 2.64 1 4 C2.32 4.33 3.64 4.66 5 5 C4.21625 5.45375 3.4325 5.9075 2.625 6.375 C-0.03698031 7.88428742 -0.03698031 7.88428742 -2 10 C-1.125 2.25 -1.125 2.25 0 0 Z " fill="#CBCBCA" transform="translate(201,66)"/>
<path d="M0 0 C2.74792483 3.40219265 6 7.48464588 6 12 C3 11 3 11 1.3125 7.6875 C0 4 0 4 0 0 Z " fill="#61443E" transform="translate(117,15)"/>
<path d="M0 0 C0.99 0 1.98 0 3 0 C3 1.32 3 2.64 3 4 C4.98 4 6.96 4 9 4 C9 4.33 9 4.66 9 5 C6.03 5 3.06 5 0 5 C0 3.35 0 1.7 0 0 Z " fill="#24201D" transform="translate(222,109)"/>
<path d="M0 0 C0.33 0 0.66 0 1 0 C2.32854177 5.9180497 1.66464729 8.77729131 -1 14 C-2.13732426 10.59598052 -1.83989957 8.22543336 -1.0625 4.75 C-0.86785156 3.85796875 -0.67320313 2.9659375 -0.47265625 2.046875 C-0.31667969 1.37140625 -0.16070312 0.6959375 0 0 Z " fill="#A4221C" transform="translate(43,43)"/>
<path d="M0 0 C0.33 0 0.66 0 1 0 C1 2.97 1 5.94 1 9 C0.01 9.33 -0.98 9.66 -2 10 C-1.85950482 8.52031676 -1.71245174 7.04125484 -1.5625 5.5625 C-1.48128906 4.73878906 -1.40007812 3.91507813 -1.31640625 3.06640625 C-1 1 -1 1 0 0 Z " fill="#521916" transform="translate(207,39)"/>
<path d="M0 0 C3.22834569 2.15223046 3.46380996 2.47566883 4.3125 6 C4.49425781 6.70125 4.67601562 7.4025 4.86328125 8.125 C4.93095703 9.053125 4.93095703 9.053125 5 10 C4.34 10.66 3.68 11.32 3 12 C2.49440092 10.56445975 1.9957251 9.1264798 1.5 7.6875 C1.2215625 6.88699219 0.943125 6.08648437 0.65625 5.26171875 C0 3 0 3 0 0 Z " fill="#623630" transform="translate(338,25)"/>
<path d="M0 0 C3.63 0 7.26 0 11 0 C11 0.99 11 1.98 11 3 C10.01 3.33 9.02 3.66 8 4 C8 3.01 8 2.02 8 1 C5.69 1 3.38 1 1 1 C0.67 1.66 0.34 2.32 0 3 C0 2.01 0 1.02 0 0 Z " fill="#E0E2E2" transform="translate(71,68)"/>
<path d="M0 0 C1.65 0.33 3.3 0.66 5 1 C4.67 1.99 4.34 2.98 4 4 C1.69 4 -0.62 4 -3 4 C-3 3.34 -3 2.68 -3 2 C-2.01 2 -1.02 2 0 2 C0 1.34 0 0.68 0 0 Z " fill="#341914" transform="translate(436,35)"/>
<path d="M0 0 C0.66 0.99 1.32 1.98 2 3 C2.8353125 4.2375 2.8353125 4.2375 3.6875 5.5 C4.120625 6.325 4.55375 7.15 5 8 C4.67 8.99 4.34 9.98 4 11 C1.35534962 7.8745041 0.15585285 4.91211733 -1 1 C-0.67 0.67 -0.34 0.34 0 0 Z " fill="#66312B" transform="translate(314,65)"/>
<path d="M0 0 C1 2 1 2 0.25 4.4375 C-0.93098981 6.85852911 -1.9831559 8.25818009 -4 10 C-3.5205537 5.78087253 -2.83374881 3.20336822 0 0 Z " fill="#6D4A45" transform="translate(305,39)"/>
<path d="M0 0 C0.99 0.33 1.98 0.66 3 1 C3.6875 3.0625 3.6875 3.0625 4 5 C2.35 5 0.7 5 -1 5 C-0.67 3.35 -0.34 1.7 0 0 Z " fill="#BCBAB8" transform="translate(179,103)"/>
<path d="M0 0 C0 0.99 0 1.98 0 3 C-2.31 3 -4.62 3 -7 3 C-7 2.34 -7 1.68 -7 1 C-4 0 -4 0 0 0 Z " fill="#351712" transform="translate(258,36)"/>
<path d="M0 0 C2.1875 -0.375 2.1875 -0.375 5 0 C6.99022836 1.83961648 8.38989899 3.79186148 10 6 C6.00499382 4.6302836 3.19990508 2.74277578 0 0 Z " fill="#592B25" transform="translate(342,17)"/>
<path d="M0 0 C0.99 0 1.98 0 3 0 C3.625 1.8125 3.625 1.8125 4 4 C3.01 5.485 3.01 5.485 2 7 C2 6.01 2 5.02 2 4 C1.34 4 0.68 4 0 4 C0 2.68 0 1.36 0 0 Z " fill="#D0CFCE" transform="translate(157,108)"/>
<path d="M0 0 C-0.33 0.99 -0.66 1.98 -1 3 C-4.5625 4.1875 -4.5625 4.1875 -8 5 C-8 4.34 -8 3.68 -8 3 C-2.25 0 -2.25 0 0 0 Z " fill="#472824" transform="translate(394,78)"/>
<path d="M0 0 C0.99 0.33 1.98 0.66 3 1 C3 2.65 3 4.3 3 6 C2.01 6 1.02 6 0 6 C0 4.02 0 2.04 0 0 Z " fill="#FAFBFA" transform="translate(182,64)"/>
<path d="M0 0 C1.04293785 3.38954801 1.30754089 6.46327974 1 10 C0.01 10.66 -0.98 11.32 -2 12 C-1.85831863 10.56208484 -1.71148957 9.1246763 -1.5625 7.6875 C-1.48128906 6.88699219 -1.40007813 6.08648437 -1.31640625 5.26171875 C-1 3 -1 3 0 0 Z " fill="#C2BDBC" transform="translate(49,55)"/>
<path d="M0 0 C2.62901288 1.52206009 4.84365964 2.84365964 7 5 C6.67 5.99 6.34 6.98 6 8 C1.125 3.375 1.125 3.375 0 0 Z " fill="#502824" transform="translate(295,16)"/>
</svg>
